<svg width="24" height="24" viewBox="0 0 24 24" fill="none" xmlns="http://www.w3.org/2000/svg">
<path d="M12 24C18.6274 24 24 18.6274 24 12C24 5.37258 18.6274 0 12 0C5.37258 0 0 5.37258 0 12C0 18.6274 5.37258 24 12 24Z" fill="#848E9C" fill-opacity="0.1"/>
<path d="M17.1177 6H19.2135L14.8531 10.3153C13.2747 11.8775 10.7156 11.8775 9.13724 10.3153L4.77686 6H6.87268L10.1851 9.27826C11.1848 10.2676 12.8055 10.2676 13.8052 9.27826L17.1177 6Z" fill="#D0D0D0"/>
<path d="M6.84583 18.0001H4.75L9.13733 13.6581C10.7157 12.096 13.2748 12.096 14.8532 13.6581L19.2406 18.0001H17.1447L13.8053 14.6952C12.8056 13.7059 11.1849 13.7059 10.1852 14.6952L6.84583 18.0001Z" fill="#D0D0D0"/>
</svg>
