<svg width="294" height="272" viewBox="0 0 294 272" fill="none" xmlns="http://www.w3.org/2000/svg">
<g opacity="0.26" filter="url(#filter0_f_2655_19204)">
<g opacity="0.92">
<g opacity="0.74">
<path d="M127.653 89.2969C144.092 84.2592 153.334 66.8489 148.297 50.4098C143.259 33.9707 125.849 24.728 109.41 29.7657C92.9706 34.8034 83.7279 52.2137 88.7656 68.6528C93.8033 85.0919 111.214 94.3346 127.653 89.2969Z" fill="url(#paint0_radial_2655_19204)" fill-opacity="0.4"/>
<path d="M104.685 31.6481C89.2853 39.2953 83.0009 57.9782 90.6481 73.3777C98.2953 88.7771 116.978 95.0615 132.378 87.4143C147.777 79.7671 154.062 61.0842 146.414 45.6847C138.767 30.2853 120.084 24.0009 104.685 31.6481Z" fill="url(#paint1_radial_2655_19204)"/>
</g>
<path d="M126.059 84.0978C139.627 79.9401 147.255 65.5708 143.098 52.0031C138.94 38.4354 124.571 30.8072 111.003 34.9649C97.4353 39.1226 89.807 53.4919 93.9648 67.0596C98.1225 80.6273 112.492 88.2555 126.059 84.0978Z" fill="url(#paint2_radial_2655_19204)" fill-opacity="0.52"/>
</g>
<path d="M106.534 75.7316C115.266 82.762 128.044 81.3825 135.075 72.6504C142.105 63.9182 140.726 51.1401 131.993 44.1097C123.261 37.0792 110.483 38.4587 103.453 47.1908C96.4222 55.923 97.8017 68.7011 106.534 75.7316Z" fill="url(#paint3_linear_2655_19204)"/>
<path d="M108.279 77.0709C118.181 82.3275 130.469 78.5618 135.726 68.66C140.983 58.7582 137.217 46.4698 127.315 41.2132C117.413 35.9566 105.125 39.7223 99.8684 49.6241C94.6118 59.5259 98.3775 71.8143 108.279 77.0709Z" fill="url(#paint4_linear_2655_19204)"/>
<path d="M109.786 74.2321C118.12 78.6562 128.463 75.4869 132.887 67.1531C137.311 58.8193 134.142 48.4769 125.808 44.0527C117.474 39.6285 107.132 42.7979 102.708 51.1317C98.2833 59.4655 101.453 69.8079 109.786 74.2321Z" fill="url(#paint5_linear_2655_19204)"/>
<path style="mix-blend-mode:color-dodge" d="M134.604 62.211C136.298 52.9291 130.148 44.0308 120.866 42.3361C111.584 40.6413 102.686 46.7919 100.991 56.0738C99.2961 65.3557 105.447 74.254 114.729 75.9488C124.01 77.6435 132.909 71.4929 134.604 62.211Z" fill="url(#paint6_radial_2655_19204)"/>
<path d="M126.154 61.6311C126.582 60.6848 126.816 59.6627 126.843 58.6243C126.89 57.3525 126.517 56.1 125.78 55.0604C125.231 54.3264 124.575 53.6777 123.835 53.1356L117.788 48.6181L113.485 54.3785L110.191 51.9179L108.535 54.1346L111.829 56.5952L107.328 62.6206L113.375 67.1381C115.495 68.7218 117.713 69.0226 120.031 68.0403C121.744 67.3083 123.297 66.0109 124.691 64.1478C125.268 63.3641 125.758 62.5203 126.154 61.6311ZM119.12 64.4578C117.556 65.4128 116.082 65.3722 114.697 64.3359L111.989 62.313L114.676 58.7163L117.09 60.5196L118.746 58.3029L116.332 56.4996L118.815 53.1755L121.523 55.1984C122.857 56.1947 123.465 57.2391 123.348 58.3315C123.231 59.424 122.638 60.6853 121.567 62.1155C120.908 63.0446 120.078 63.8395 119.12 64.4578Z" fill="white"/>
<g style="mix-blend-mode:multiply" opacity="0.68" filter="url(#filter1_d_2655_19204)">
<path d="M109.786 74.2321C118.12 78.6562 128.463 75.4869 132.887 67.1531C137.311 58.8193 134.142 48.4769 125.808 44.0527C117.474 39.6285 107.132 42.7979 102.708 51.1317C98.2833 59.4655 101.453 69.8079 109.786 74.2321Z" stroke="#CE66FF" stroke-width="3.47014" stroke-miterlimit="10" shape-rendering="crispEdges"/>
</g>
</g>
<g opacity="0.92">
<g opacity="0.74">
<path d="M214.897 238.146C240.507 230.298 254.906 203.175 247.058 177.564C239.21 151.954 212.086 137.555 186.476 145.403C160.866 153.251 146.466 180.375 154.315 205.985C162.163 231.595 189.286 245.995 214.897 238.146Z" fill="url(#paint7_radial_2655_19204)" fill-opacity="0.4"/>
<path d="M179.115 148.336C155.124 160.249 145.334 189.355 157.247 213.346C169.161 237.337 198.267 247.127 222.257 235.214C246.248 223.3 256.039 194.194 244.125 170.203C232.212 146.213 203.106 136.422 179.115 148.336Z" fill="url(#paint8_radial_2655_19204)"/>
</g>
<path d="M212.414 230.047C233.551 223.569 245.435 201.184 238.958 180.047C232.481 158.91 210.095 147.026 188.958 153.503C167.821 159.98 155.937 182.366 162.414 203.503C168.892 224.64 191.277 236.524 212.414 230.047Z" fill="url(#paint9_radial_2655_19204)" fill-opacity="0.52"/>
</g>
<path d="M181.996 217.013C195.599 227.966 215.506 225.817 226.459 212.213C237.412 198.609 235.263 178.702 221.659 167.75C208.055 156.797 188.148 158.946 177.195 172.55C166.243 186.153 168.392 206.06 181.996 217.013Z" fill="url(#paint10_linear_2655_19204)"/>
<path d="M184.715 219.1C200.141 227.289 219.285 221.422 227.474 205.996C235.663 190.57 229.797 171.427 214.371 163.237C198.945 155.048 179.801 160.915 171.612 176.341C163.422 191.767 169.289 210.91 184.715 219.1Z" fill="url(#paint11_linear_2655_19204)"/>
<path d="M187.063 214.677C200.046 221.569 216.158 216.632 223.051 203.648C229.943 190.665 225.006 174.553 212.022 167.66C199.039 160.768 182.927 165.706 176.035 178.689C169.142 191.672 174.08 207.784 187.063 214.677Z" fill="url(#paint12_linear_2655_19204)"/>
<path style="mix-blend-mode:color-dodge" d="M225.725 195.949C228.365 181.489 218.783 167.626 204.323 164.986C189.863 162.346 176 171.928 173.36 186.388C170.72 200.848 180.302 214.711 194.762 217.351C209.222 219.991 223.085 210.409 225.725 195.949Z" fill="url(#paint13_radial_2655_19204)"/>
<g style="mix-blend-mode:multiply" opacity="0.68" filter="url(#filter2_d_2655_19204)">
<path d="M187.063 214.677C200.046 221.569 216.158 216.632 223.051 203.648C229.943 190.665 225.006 174.553 212.022 167.66C199.039 160.768 182.927 165.706 176.035 178.689C169.142 191.672 174.08 207.784 187.063 214.677Z" stroke="#CE66FF" stroke-width="3.47014" stroke-miterlimit="10" shape-rendering="crispEdges"/>
</g>
<path d="M210.877 190.291C212.174 187.103 210.098 184.723 206.93 182.698L209.158 178.502L206.605 177.147L204.44 181.227C203.77 180.871 203.082 180.506 202.378 180.185L204.563 176.07L202.01 174.715L199.786 178.905L198.141 178.077L194.645 176.221L193.197 178.948C193.197 178.948 195.11 179.904 195.056 179.935C195.422 180.071 195.719 180.346 195.885 180.699C196.051 181.052 196.072 181.457 195.943 181.825L193.406 186.604L193.68 186.749L193.412 186.607L189.892 193.321C189.822 193.436 189.731 193.536 189.622 193.616C189.513 193.696 189.39 193.753 189.26 193.785C189.129 193.817 188.993 193.823 188.86 193.802C188.727 193.781 188.599 193.735 188.485 193.664C188.52 193.683 186.631 192.681 186.631 192.681L184.507 195.542L187.829 197.305C188.447 197.633 189.053 197.955 189.653 198.274L187.401 202.516L189.953 203.871L192.181 199.675C192.88 200.047 193.556 200.405 194.22 200.758L192.002 204.936L194.555 206.291L196.804 202.055C201.238 204.058 204.821 204.556 207.311 200.709C209.323 197.608 208.549 195.352 206.401 193.502C208.287 193.525 209.907 192.682 210.855 190.347L210.877 190.291ZM202.555 197.526C200.872 200.696 195.631 197.496 193.894 196.589L196.88 190.965C198.628 191.893 204.314 194.225 202.584 197.541L202.555 197.526ZM205.526 188.945C203.98 191.858 199.643 189.123 198.197 188.37L200.875 183.256C202.303 183.999 207.082 185.916 205.503 188.932L205.526 188.945Z" fill="white"/>
<g opacity="0.92">
<g opacity="0.74">
<path d="M136.773 160.726C145.91 135.547 132.906 107.728 107.727 98.591C82.5473 89.4538 54.7283 102.458 45.5911 127.638C36.4539 152.817 49.4586 180.636 74.6378 189.773C99.817 198.91 127.636 185.906 136.773 160.726Z" fill="url(#paint14_radial_2655_19204)" fill-opacity="0.4"/>
<path d="M43.5056 135.282C38.5903 161.613 55.9511 186.943 82.2821 191.858C108.613 196.774 133.943 179.413 138.859 153.082C143.774 126.751 126.413 101.421 100.082 96.5055C73.7512 91.5901 48.421 108.951 43.5056 135.282Z" fill="url(#paint15_radial_2655_19204)"/>
</g>
<path d="M128.81 157.837C136.351 137.056 125.618 114.096 104.837 106.555C84.0555 99.0133 61.0957 109.746 53.5545 130.528C46.0133 151.309 56.7464 174.269 77.5276 181.81C98.3088 189.351 121.269 178.618 128.81 157.837Z" fill="url(#paint16_radial_2655_19204)" fill-opacity="0.52"/>
</g>
<path d="M100.099 174.295C117.032 170.017 127.291 152.822 123.013 135.889C118.734 118.957 101.54 108.698 84.6068 112.976C67.6739 117.254 57.4152 134.449 61.6933 151.382C65.9714 168.315 83.1663 178.573 100.099 174.295Z" fill="url(#paint17_linear_2655_19204)"/>
<path d="M103.402 173.378C119.223 165.982 126.054 147.16 118.657 131.339C111.261 115.517 92.4396 108.687 76.6181 116.083C60.7966 123.48 53.9665 142.301 61.3626 158.123C68.7588 173.944 87.5804 180.774 103.402 173.378Z" fill="url(#paint18_linear_2655_19204)"/>
<path d="M101.281 168.842C114.597 162.617 120.346 146.776 114.121 133.46C107.896 120.144 92.0548 114.395 78.7387 120.62C65.4226 126.845 59.6741 142.686 65.899 156.002C72.124 169.318 87.9651 175.067 101.281 168.842Z" fill="url(#paint19_linear_2655_19204)"/>
<path style="mix-blend-mode:color-dodge" d="M109.579 126.692C99.6166 115.884 82.7787 115.199 71.9708 125.161C61.1628 135.124 60.4777 151.962 70.4405 162.77C80.4033 173.578 97.2412 174.263 108.049 164.3C118.857 154.338 119.542 137.5 109.579 126.692Z" fill="url(#paint20_radial_2655_19204)"/>
<g style="mix-blend-mode:multiply" opacity="0.68" filter="url(#filter3_d_2655_19204)">
<path d="M101.281 168.842C114.597 162.617 120.346 146.776 114.121 133.46C107.896 120.144 92.0548 114.395 78.7387 120.62C65.4226 126.845 59.6741 142.686 65.899 156.002C72.124 169.318 87.9651 175.067 101.281 168.842Z" stroke="#CE66FF" stroke-width="3.47014" stroke-miterlimit="10" shape-rendering="crispEdges"/>
</g>
<g opacity="0.7">
<path d="M82.2686 127.941L82.401 128.793L92.5678 150.542L92.8884 150.658L100.195 139.973L82.2686 127.941Z" fill="#EDEEEF"/>
<path d="M82.2684 127.941L80.004 149.412L92.8883 150.658L87.9548 140.105L82.2684 127.941Z" fill="white"/>
<path d="M93.7832 152.572L93.7307 152.781L97.353 160.529L97.6443 160.831L101.097 141.883L93.7832 152.572Z" fill="#EDEEEF"/>
<path d="M97.644 160.831L93.7828 152.572L80.8985 151.325L97.644 160.831Z" fill="white"/>
<path d="M100.195 139.973L92.8881 150.659L87.9546 140.105L100.195 139.973Z" fill="#D5D8DB"/>
<path d="M87.9548 140.105L92.8884 150.658L80.004 149.412L87.9548 140.105Z" fill="#EDEEEF"/>
</g>
<g opacity="0.8">
<g opacity="0.92">
<g opacity="0.74">
<path d="M247.084 117.884C264.368 100.6 264.368 72.5782 247.084 55.2946C229.801 38.011 201.778 38.011 184.495 55.2946C167.211 72.5782 167.211 100.6 184.495 117.884C201.778 135.168 229.801 135.168 247.084 117.884Z" fill="url(#paint21_radial_2655_19204)" fill-opacity="0.4"/>
<path d="M179.817 60.8079C165.578 80.6751 170.141 108.323 190.008 122.562C209.875 136.801 237.524 132.238 251.762 112.371C266.001 92.5035 261.438 64.8552 241.571 50.6165C221.704 36.3778 194.055 40.9407 179.817 60.8079Z" fill="url(#paint22_radial_2655_19204)"/>
</g>
<path d="M241.618 112.418C255.883 98.1532 255.883 75.0256 241.618 60.7609C227.353 46.4962 204.226 46.4962 189.961 60.7609C175.696 75.0255 175.696 98.1532 189.961 112.418C204.226 126.683 227.353 126.683 241.618 112.418Z" fill="url(#paint23_radial_2655_19204)" fill-opacity="0.52"/>
</g>
<path d="M211.524 114.928C227.175 117.935 242.3 107.686 245.307 92.0347C248.314 76.3838 238.064 61.2586 222.413 58.2516C206.762 55.2446 191.637 65.4944 188.63 81.1453C185.623 96.7962 195.873 111.921 211.524 114.928Z" fill="url(#paint24_linear_2655_19204)"/>
<path d="M214.608 115.447C230.546 115.447 243.465 102.527 243.465 86.5901C243.465 70.653 230.546 57.7334 214.608 57.7334C198.671 57.7334 185.752 70.653 185.752 86.5901C185.752 102.527 198.671 115.447 214.608 115.447Z" fill="url(#paint25_linear_2655_19204)"/>
<path d="M214.608 110.877C228.022 110.877 238.895 100.003 238.895 86.5901C238.895 73.1767 228.022 62.303 214.608 62.303C201.195 62.303 190.321 73.1767 190.321 86.5901C190.321 100.003 201.195 110.877 214.608 110.877Z" fill="url(#paint26_linear_2655_19204)"/>
<path style="mix-blend-mode:color-dodge" d="M237.757 79.2402C233.697 66.4558 220.043 59.3826 207.259 63.4417C194.474 67.5009 187.401 81.1554 191.46 93.9398C195.519 106.724 209.174 113.798 221.958 109.738C234.743 105.679 241.816 92.0247 237.757 79.2402Z" fill="url(#paint27_radial_2655_19204)"/>
<path d="M197.976 86.7924C197.976 86.7508 197.999 86.7059 198.011 86.6643C198.061 86.4979 198.169 86.3551 198.316 86.2621C198.462 86.1691 198.638 86.1321 198.809 86.1579C198.98 86.1802 199.138 86.2616 199.255 86.388C199.372 86.5145 199.441 86.678 199.45 86.8501C199.454 87.0233 199.398 87.1924 199.291 87.3287C199.184 87.4649 199.033 87.5596 198.864 87.5968C198.674 87.6336 198.477 87.594 198.316 87.4866C198.156 87.3792 198.044 87.2127 198.005 87.0232C198 87.0024 197.994 86.9821 197.986 86.9623L197.976 86.7924Z" fill="white"/>
<path d="M231.727 86.8948C231.727 86.9333 231.701 86.9717 231.692 87.0134C231.655 87.1352 231.587 87.2453 231.494 87.3325C231.401 87.4198 231.287 87.4811 231.164 87.5106C231.04 87.54 230.91 87.5364 230.788 87.5002C230.666 87.464 230.556 87.3964 230.468 87.3042C230.381 87.212 230.319 87.0983 230.288 86.9747C230.258 86.851 230.261 86.7215 230.297 86.5993C230.333 86.4771 230.4 86.3664 230.491 86.2783C230.583 86.1901 230.696 86.1275 230.82 86.0969C230.916 86.0747 231.015 86.0719 231.111 86.0886C231.208 86.1052 231.3 86.141 231.383 86.1938C231.466 86.2467 231.537 86.3155 231.593 86.3962C231.649 86.477 231.688 86.568 231.708 86.6641C231.713 86.6848 231.719 86.7051 231.727 86.725V86.8948Z" fill="white"/>
<path d="M211.762 86.8501C211.761 87.2997 211.626 87.7387 211.375 88.1115C211.124 88.4843 210.767 88.774 210.351 88.944C209.935 89.114 209.478 89.1565 209.037 89.0661C208.597 88.9757 208.193 88.7566 207.878 88.4364C207.562 88.1163 207.349 87.7097 207.265 87.268C207.181 86.8264 207.23 86.3698 207.405 85.956C207.581 85.5423 207.876 85.1902 208.252 84.9442C208.629 84.6983 209.07 84.5698 209.519 84.5749C209.816 84.5769 210.109 84.6374 210.383 84.7529C210.656 84.8684 210.904 85.0366 211.112 85.2479C211.32 85.4592 211.485 85.7094 211.597 85.9843C211.708 86.2592 211.764 86.5534 211.762 86.8501Z" fill="white"/>
<path d="M214.422 82.2096C214.42 82.6569 214.285 83.0934 214.034 83.4642C213.784 83.8349 213.43 84.1233 213.016 84.293C212.602 84.4628 212.147 84.5061 211.709 84.4178C211.27 84.3295 210.868 84.1133 210.552 83.7966C210.236 83.4799 210.021 83.0767 209.934 82.638C209.847 82.1993 209.892 81.7446 210.063 81.3313C210.234 80.9179 210.523 80.5644 210.894 80.3152C211.266 80.0661 211.703 79.9324 212.15 79.9312C212.449 79.9299 212.746 79.988 213.022 80.1021C213.299 80.2163 213.55 80.3841 213.762 80.596C213.973 80.8079 214.14 81.0597 214.254 81.3367C214.367 81.6136 214.424 81.9104 214.422 82.2096Z" fill="white"/>
<path d="M214.445 91.4872C214.445 91.9372 214.312 92.3771 214.062 92.7512C213.812 93.1253 213.456 93.4166 213.04 93.588C212.624 93.7594 212.167 93.8033 211.726 93.714C211.285 93.6248 210.88 93.4064 210.563 93.0866C210.247 92.7669 210.032 92.3602 209.948 91.9183C209.863 91.4764 209.911 91.0193 210.087 90.605C210.262 90.1907 210.557 89.838 210.934 89.5916C211.31 89.3453 211.751 89.2165 212.201 89.2216C212.498 89.2216 212.791 89.2803 213.065 89.3944C213.339 89.5086 213.587 89.6758 213.796 89.8865C214.004 90.0972 214.169 90.3471 214.28 90.6219C214.392 90.8966 214.448 91.1907 214.445 91.4872Z" fill="white"/>
<path d="M215.265 91.4743C215.265 91.0245 215.399 90.5848 215.649 90.2112C215.9 89.8375 216.255 89.5467 216.672 89.3758C217.088 89.2048 217.545 89.1614 217.986 89.2511C218.427 89.3407 218.831 89.5594 219.147 89.8792C219.463 90.1991 219.677 90.6058 219.762 91.0476C219.847 91.4894 219.798 91.9463 219.622 92.3605C219.447 92.7746 219.152 93.1271 218.776 93.3733C218.399 93.6195 217.958 93.7482 217.508 93.7431C216.911 93.7372 216.34 93.4955 215.919 93.0705C215.499 92.6456 215.264 92.0719 215.265 91.4743Z" fill="white"/>
<path d="M222.459 86.8117C222.463 87.2597 222.334 87.6987 222.088 88.0732C221.842 88.4476 221.49 88.7406 221.077 88.915C220.665 89.0893 220.21 89.1373 219.77 89.0527C219.33 88.9681 218.925 88.7548 218.606 88.4398C218.288 88.1248 218.07 87.7223 217.98 87.2834C217.891 86.8444 217.933 86.3887 218.103 85.9741C218.273 85.5594 218.562 85.2045 218.933 84.9543C219.305 84.7041 219.742 84.5698 220.19 84.5685C220.487 84.5651 220.782 84.6206 221.057 84.7318C221.332 84.843 221.582 85.0077 221.793 85.2164C222.004 85.425 222.172 85.6735 222.286 85.9473C222.4 86.2212 222.459 86.515 222.459 86.8117Z" fill="white"/>
<path d="M217.438 79.9347C217.879 79.9209 218.315 80.0366 218.691 80.2676C219.068 80.4986 219.369 80.8347 219.556 81.2345C219.744 81.6343 219.811 82.0803 219.748 82.5175C219.685 82.9547 219.496 83.364 219.203 83.6949C218.91 84.0257 218.527 84.2637 218.101 84.3794C217.675 84.4952 217.224 84.4836 216.804 84.3461C216.385 84.2087 216.014 83.9514 215.739 83.6059C215.464 83.2605 215.296 82.8421 215.255 82.4022C215.224 82.0944 215.257 81.7835 215.352 81.4891C215.447 81.1946 215.602 80.923 215.807 80.6913C216.012 80.4595 216.262 80.2727 216.543 80.1425C216.824 80.0123 217.128 79.9415 217.438 79.9347Z" fill="white"/>
<path d="M213.493 77.6625C213.495 77.4001 213.574 77.1442 213.722 76.9271C213.869 76.71 214.077 76.5414 214.321 76.4428C214.564 76.3441 214.831 76.3198 215.088 76.3729C215.345 76.4259 215.58 76.554 215.764 76.7409C215.949 76.9277 216.073 77.1651 216.122 77.4228C216.172 77.6805 216.144 77.947 216.041 78.1887C215.939 78.4304 215.768 78.6364 215.549 78.7806C215.329 78.9248 215.072 79.0007 214.81 78.9988C214.635 78.9993 214.462 78.9649 214.301 78.8976C214.14 78.8304 213.993 78.7317 213.871 78.6072C213.748 78.4828 213.651 78.3352 213.587 78.173C213.522 78.0107 213.49 77.8372 213.493 77.6625Z" fill="white"/>
<path d="M213.461 96.0187C213.458 95.8441 213.49 95.6708 213.556 95.509C213.621 95.3471 213.718 95.1999 213.841 95.076C213.964 94.9521 214.111 94.854 214.272 94.7875C214.433 94.721 214.606 94.6875 214.781 94.6888C215.044 94.6869 215.302 94.7632 215.522 94.9082C215.742 95.0532 215.914 95.2602 216.016 95.503C216.119 95.7459 216.146 96.0136 216.096 96.2722C216.046 96.5308 215.92 96.7686 215.734 96.9556C215.549 97.1426 215.312 97.2702 215.054 97.3223C214.795 97.3744 214.527 97.3486 214.284 97.2482C214.04 97.1479 213.832 96.9774 213.685 96.7585C213.539 96.5396 213.461 96.2821 213.461 96.0187Z" fill="white"/>
<path d="M224.126 91.4134C224.125 91.6765 224.046 91.9334 223.9 92.1518C223.753 92.3701 223.545 92.5401 223.302 92.6401C223.058 92.7402 222.791 92.7659 222.533 92.714C222.275 92.662 222.039 92.5348 221.853 92.3483C221.667 92.1619 221.541 91.9246 221.491 91.6665C221.44 91.4084 221.467 91.1411 221.568 90.8983C221.669 90.6556 221.84 90.4483 222.059 90.3027C222.279 90.1571 222.536 90.0797 222.799 90.0803C222.974 90.0803 223.147 90.1149 223.308 90.182C223.469 90.249 223.616 90.3473 223.739 90.4712C223.863 90.5951 223.96 90.7421 224.026 90.9038C224.093 91.0655 224.126 91.2387 224.126 91.4134Z" fill="white"/>
<path d="M208.221 82.277C208.221 82.54 208.143 82.7971 207.997 83.0158C207.851 83.2345 207.643 83.405 207.4 83.5056C207.157 83.6063 206.89 83.6327 206.632 83.5813C206.374 83.53 206.137 83.4034 205.951 83.2174C205.765 83.0314 205.638 82.7944 205.587 82.5364C205.536 82.2785 205.562 82.011 205.663 81.768C205.763 81.525 205.934 81.3173 206.152 81.1712C206.371 81.0251 206.628 80.9471 206.891 80.9471C207.066 80.9458 207.24 80.9793 207.402 81.0457C207.564 81.1121 207.711 81.21 207.835 81.3337C207.958 81.4575 208.056 81.6046 208.123 81.7666C208.189 81.9285 208.223 82.102 208.221 82.277Z" fill="white"/>
<path d="M206.917 92.7785C206.654 92.7785 206.397 92.7004 206.178 92.5541C205.959 92.4078 205.789 92.1999 205.688 91.9567C205.587 91.7135 205.561 91.446 205.613 91.1879C205.664 90.9299 205.791 90.6929 205.978 90.507C206.164 90.3212 206.401 90.1948 206.66 90.1438C206.918 90.0929 207.185 90.1197 207.428 90.2208C207.671 90.322 207.879 90.4929 208.024 90.712C208.17 90.9311 208.248 91.1886 208.247 91.4517C208.246 91.8039 208.106 92.1414 207.856 92.3901C207.607 92.6388 207.269 92.7785 206.917 92.7785Z" fill="white"/>
<path d="M224.103 82.2356C224.104 82.4987 224.026 82.756 223.881 82.9751C223.735 83.1941 223.528 83.3651 223.285 83.4663C223.042 83.5676 222.775 83.5945 222.517 83.5438C222.259 83.4931 222.022 83.367 221.835 83.1815C221.649 82.9959 221.522 82.7593 221.47 82.5015C221.418 82.2436 221.443 81.9761 221.543 81.7329C221.643 81.4896 221.813 81.2815 222.032 81.1348C222.25 80.9882 222.507 80.9096 222.77 80.9089C223.122 80.9098 223.46 81.0496 223.71 81.2981C223.959 81.5465 224.101 81.8835 224.103 82.2356Z" fill="white"/>
<path d="M220.831 98.2649C220.607 98.2642 220.389 98.1972 220.203 98.0722C220.017 97.9472 219.873 97.77 219.788 97.5628C219.703 97.3557 219.681 97.128 219.726 96.9086C219.77 96.6892 219.879 96.488 220.038 96.3304C220.197 96.1728 220.399 96.0658 220.619 96.0232C220.839 95.9805 221.066 96.004 221.273 96.0907C221.479 96.1774 221.655 96.3234 221.778 96.5102C221.902 96.697 221.967 96.9162 221.966 97.1401C221.963 97.4393 221.843 97.7253 221.63 97.936C221.418 98.1467 221.131 98.2649 220.831 98.2649Z" fill="white"/>
<path d="M220.774 77.6494C220.625 77.6503 220.478 77.6217 220.34 77.5653C220.203 77.509 220.078 77.426 219.973 77.3211C219.868 77.2162 219.784 77.0916 219.728 76.9543C219.671 76.8171 219.642 76.6699 219.642 76.5214C219.646 76.2205 219.768 75.9331 219.982 75.7218C220.196 75.5106 220.485 75.3925 220.786 75.3934C220.944 75.3765 221.103 75.393 221.253 75.4417C221.404 75.4904 221.543 75.5702 221.66 75.676C221.778 75.7817 221.872 75.9111 221.937 76.0557C222.001 76.2002 222.034 76.3567 222.034 76.515C222.034 76.6732 222.001 76.8297 221.937 76.9743C221.872 77.1188 221.778 77.2482 221.66 77.354C221.543 77.4598 221.404 77.5396 221.253 77.5883C221.103 77.637 220.944 77.6534 220.786 77.6366L220.774 77.6494Z" fill="white"/>
<path d="M208.913 96.0342C209.062 96.0334 209.209 96.0619 209.347 96.1182C209.485 96.1746 209.61 96.2575 209.715 96.3623C209.821 96.4671 209.904 96.5918 209.961 96.7291C210.018 96.8664 210.048 97.0136 210.048 97.1622C210.032 97.4523 209.906 97.7253 209.696 97.9251C209.485 98.125 209.205 98.2364 208.915 98.2364C208.625 98.2364 208.345 98.125 208.134 97.9251C207.924 97.7253 207.798 97.4523 207.782 97.1622C207.781 97.0136 207.81 96.8663 207.867 96.7288C207.923 96.5914 208.007 96.4665 208.112 96.3616C208.217 96.2566 208.342 96.1736 208.48 96.1174C208.617 96.0612 208.765 96.0329 208.913 96.0342Z" fill="white"/>
<path d="M204.071 86.8759C204.072 87.1003 204.006 87.3198 203.881 87.5065C203.757 87.6932 203.58 87.8387 203.372 87.9244C203.165 88.0102 202.937 88.0323 202.717 87.9879C202.497 87.9436 202.295 87.8348 202.137 87.6755C201.979 87.5161 201.872 87.3134 201.829 87.093C201.787 86.8726 201.811 86.6446 201.898 86.438C201.986 86.2313 202.133 86.0554 202.321 85.9325C202.508 85.8096 202.728 85.7453 202.953 85.7479C203.1 85.7483 203.246 85.7778 203.383 85.8348C203.519 85.8917 203.642 85.975 203.746 86.0798C203.85 86.1845 203.932 86.3088 203.988 86.4454C204.044 86.582 204.072 86.7283 204.071 86.8759Z" fill="white"/>
<path d="M225.619 86.8148C225.6 86.6551 225.614 86.493 225.662 86.3394C225.711 86.1858 225.791 86.0443 225.898 85.9242C226.005 85.8041 226.137 85.7083 226.284 85.6432C226.431 85.578 226.591 85.545 226.752 85.5464C226.913 85.5478 227.071 85.5835 227.217 85.6512C227.363 85.7188 227.493 85.8169 227.599 85.9387C227.704 86.0606 227.782 86.2035 227.827 86.3579C227.873 86.5123 227.885 86.6746 227.862 86.8341C227.856 87.1336 227.732 87.4185 227.517 87.6276C227.303 87.8367 227.015 87.9534 226.715 87.9525C226.42 87.9449 226.139 87.8213 225.934 87.6084C225.729 87.3955 225.616 87.1104 225.619 86.8148Z" fill="white"/>
<path d="M208.878 75.4256C209.102 75.4262 209.32 75.4931 209.505 75.6177C209.69 75.7423 209.834 75.9191 209.919 76.1256C210.003 76.3322 210.025 76.5592 209.981 76.778C209.936 76.9968 209.828 77.1975 209.669 77.3546C209.511 77.5118 209.309 77.6184 209.09 77.6609C208.871 77.7035 208.644 77.6801 208.438 77.5936C208.232 77.5072 208.057 77.3615 207.934 77.1753C207.811 76.989 207.746 76.7704 207.747 76.5472C207.747 76.3991 207.776 76.2525 207.833 76.1157C207.89 75.979 207.974 75.855 208.079 75.7507C208.184 75.6464 208.309 75.564 208.446 75.5082C208.583 75.4524 208.73 75.4243 208.878 75.4256Z" fill="white"/>
<path d="M203.107 94.1917C203.108 94.3758 203.054 94.5561 202.953 94.7098C202.852 94.8635 202.707 94.9836 202.537 95.0549C202.368 95.1262 202.181 95.1455 202 95.1104C201.819 95.0753 201.653 94.9873 201.522 94.8575C201.392 94.7278 201.303 94.5623 201.266 94.3818C201.23 94.2014 201.248 94.0142 201.318 93.844C201.388 93.6738 201.507 93.5283 201.66 93.4259C201.813 93.3235 201.993 93.2688 202.177 93.2688C202.299 93.268 202.42 93.2912 202.532 93.3372C202.645 93.3832 202.748 93.4511 202.834 93.5369C202.92 93.6226 202.989 93.7247 203.036 93.8371C203.083 93.9495 203.107 94.07 203.107 94.1917Z" fill="white"/>
<path d="M214.788 100.562C214.972 100.563 215.152 100.618 215.305 100.721C215.458 100.824 215.577 100.97 215.647 101.141C215.717 101.312 215.735 101.499 215.698 101.68C215.662 101.861 215.572 102.027 215.441 102.157C215.311 102.287 215.144 102.375 214.963 102.41C214.782 102.446 214.595 102.427 214.424 102.355C214.254 102.284 214.109 102.164 214.007 102.01C213.905 101.857 213.851 101.676 213.852 101.492C213.86 101.247 213.961 101.014 214.135 100.841C214.309 100.669 214.542 100.569 214.788 100.562Z" fill="white"/>
<path d="M227.516 80.4182C227.332 80.4195 227.152 80.3663 226.999 80.2653C226.846 80.1644 226.725 80.0203 226.654 79.8512C226.582 79.682 226.562 79.4955 226.597 79.315C226.631 79.1346 226.718 78.9684 226.847 78.8374C226.976 78.7065 227.14 78.6166 227.32 78.5791C227.5 78.5416 227.687 78.5583 227.857 78.627C228.027 78.6957 228.174 78.8132 228.277 78.9649C228.381 79.1166 228.437 79.2956 228.439 79.4793C228.44 79.6016 228.417 79.7229 228.372 79.8364C228.326 79.9498 228.258 80.0531 228.172 80.1404C228.087 80.2276 227.985 80.297 227.872 80.3447C227.759 80.3924 227.638 80.4174 227.516 80.4182Z" fill="white"/>
<path d="M213.881 72.1889C213.881 71.9424 213.978 71.706 214.153 71.5317C214.327 71.3574 214.563 71.2595 214.81 71.2595C215.056 71.2595 215.293 71.3574 215.467 71.5317C215.641 71.706 215.739 71.9424 215.739 72.1889C215.739 72.4353 215.641 72.6717 215.467 72.846C215.293 73.0203 215.056 73.1182 214.81 73.1182C214.563 73.1182 214.327 73.0203 214.153 72.846C213.978 72.6717 213.881 72.4353 213.881 72.1889Z" fill="white"/>
<path d="M228.477 94.1469C228.477 94.331 228.423 94.5109 228.32 94.6638C228.218 94.8168 228.072 94.9359 227.902 95.0061C227.732 95.0762 227.545 95.0942 227.364 95.0578C227.184 95.0215 227.018 94.9323 226.889 94.8017C226.759 94.6711 226.671 94.5049 226.636 94.3242C226.601 94.1435 226.62 93.9565 226.691 93.7868C226.763 93.6171 226.883 93.4724 227.036 93.3711C227.19 93.2697 227.37 93.2163 227.555 93.2176C227.676 93.2171 227.797 93.2409 227.91 93.2875C228.022 93.3342 228.125 93.4027 228.21 93.4892C228.296 93.5757 228.364 93.6783 228.41 93.7912C228.456 93.9041 228.479 94.025 228.477 94.1469Z" fill="white"/>
<path d="M201.213 79.5339C201.209 79.4076 201.23 79.2818 201.276 79.1641C201.322 79.0464 201.391 78.9393 201.48 78.8494C201.569 78.7595 201.675 78.6886 201.792 78.641C201.909 78.5935 202.035 78.5703 202.161 78.573C202.287 78.5756 202.412 78.6039 202.527 78.6562C202.642 78.7086 202.745 78.7838 202.83 78.8774C202.915 78.9709 202.98 79.0808 203.021 79.2003C203.062 79.3198 203.078 79.4464 203.068 79.5724C203.05 79.8093 202.942 80.0304 202.766 80.1901C202.59 80.3499 202.36 80.4361 202.122 80.4312C201.885 80.4263 201.658 80.3305 201.489 80.1636C201.32 79.9967 201.221 79.7714 201.213 79.5339Z" fill="white"/>
<path d="M207.475 72.8842C207.474 73.0281 207.431 73.1685 207.35 73.2878C207.27 73.4071 207.156 73.4998 207.023 73.5543C206.889 73.6088 206.743 73.6225 206.602 73.5938C206.461 73.5651 206.332 73.4953 206.231 73.3931C206.129 73.2909 206.061 73.161 206.033 73.0198C206.006 72.8785 206.021 72.7324 206.076 72.5997C206.132 72.467 206.226 72.3538 206.346 72.2744C206.466 72.195 206.607 72.1529 206.75 72.1536C206.846 72.1531 206.941 72.1718 207.03 72.2084C207.118 72.2451 207.198 72.299 207.266 72.367C207.333 72.435 207.386 72.5158 207.422 72.6046C207.458 72.6934 207.476 72.7885 207.475 72.8842Z" fill="white"/>
<path d="M223.603 72.8654C223.605 72.9643 223.586 73.0624 223.549 73.1539C223.511 73.2454 223.456 73.3283 223.385 73.3975C223.314 73.4667 223.23 73.5208 223.138 73.5565C223.046 73.5921 222.947 73.6086 222.849 73.6049C222.75 73.6012 222.653 73.5774 222.563 73.5349C222.474 73.4924 222.394 73.4322 222.329 73.3579C222.264 73.2836 222.215 73.1968 222.184 73.1027C222.153 73.0087 222.142 72.9094 222.152 72.8109C222.158 72.6219 222.24 72.4433 222.378 72.3141C222.516 72.185 222.7 72.1159 222.889 72.1219C223.082 72.127 223.265 72.2078 223.399 72.347C223.532 72.4862 223.606 72.6724 223.603 72.8654Z" fill="white"/>
<path d="M223.667 100.803C223.674 100.902 223.66 101.002 223.627 101.096C223.593 101.189 223.541 101.275 223.473 101.348C223.405 101.421 223.322 101.479 223.231 101.518C223.14 101.558 223.041 101.579 222.941 101.579C222.842 101.579 222.743 101.558 222.652 101.518C222.561 101.479 222.478 101.421 222.41 101.348C222.342 101.275 222.29 101.189 222.256 101.096C222.223 101.002 222.209 100.902 222.216 100.803C222.209 100.703 222.223 100.604 222.256 100.51C222.29 100.416 222.342 100.33 222.41 100.258C222.478 100.185 222.561 100.127 222.652 100.087C222.743 100.048 222.842 100.027 222.941 100.027C223.041 100.027 223.14 100.048 223.231 100.087C223.322 100.127 223.405 100.185 223.473 100.258C223.541 100.33 223.593 100.416 223.627 100.51C223.66 100.604 223.674 100.703 223.667 100.803Z" fill="white"/>
<path d="M206.798 101.553C206.606 101.553 206.422 101.476 206.286 101.341C206.15 101.205 206.074 101.021 206.074 100.828C206.074 100.636 206.15 100.452 206.286 100.316C206.422 100.181 206.606 100.104 206.798 100.104C206.99 100.104 207.175 100.181 207.31 100.316C207.446 100.452 207.523 100.636 207.523 100.828C207.523 101.021 207.446 101.205 207.31 101.341C207.175 101.476 206.99 101.553 206.798 101.553Z" fill="white"/>
<g style="mix-blend-mode:multiply" opacity="0.68" filter="url(#filter4_d_2655_19204)">
<path d="M214.608 110.877C228.022 110.877 238.895 100.003 238.895 86.5901C238.895 73.1767 228.022 62.303 214.608 62.303C201.195 62.303 190.321 73.1767 190.321 86.5901C190.321 100.003 201.195 110.877 214.608 110.877Z" stroke="#CE66FF" stroke-width="3.47014" stroke-miterlimit="10" shape-rendering="crispEdges"/>
</g>
</g>
<defs>
<filter id="filter0_f_2655_19204" x="84.4514" y="25.4514" width="68.1596" height="68.1597" filterUnits="userSpaceOnUse" color-interpolation-filters="sRGB">
<feFlood flood-opacity="0" result="BackgroundImageFix"/>
<feBlend mode="normal" in="SourceGraphic" in2="BackgroundImageFix" result="shape"/>
<feGaussianBlur stdDeviation="1.46985" result="effect1_foregroundBlur_2655_19204"/>
</filter>
<filter id="filter1_d_2655_19204" x="94.3473" y="40.3193" width="46.8997" height="46.8997" filterUnits="userSpaceOnUse" color-interpolation-filters="sRGB">
<feFlood flood-opacity="0" result="BackgroundImageFix"/>
<feColorMatrix in="SourceAlpha" type="matrix" values="0 0 0 0 0 0 0 0 0 0 0 0 0 0 0 0 0 0 127 0" result="hardAlpha"/>
<feOffset dy="4.62685"/>
<feGaussianBlur stdDeviation="2.31342"/>
<feComposite in2="hardAlpha" operator="out"/>
<feColorMatrix type="matrix" values="0 0 0 0 0 0 0 0 0 0 0 0 0 0 0 0 0 0 0.25 0"/>
<feBlend mode="normal" in2="BackgroundImageFix" result="effect1_dropShadow_2655_19204"/>
<feBlend mode="normal" in="SourceGraphic" in2="effect1_dropShadow_2655_19204" result="shape"/>
</filter>
<filter id="filter2_d_2655_19204" x="166.56" y="162.812" width="65.9658" height="65.9659" filterUnits="userSpaceOnUse" color-interpolation-filters="sRGB">
<feFlood flood-opacity="0" result="BackgroundImageFix"/>
<feColorMatrix in="SourceAlpha" type="matrix" values="0 0 0 0 0 0 0 0 0 0 0 0 0 0 0 0 0 0 127 0" result="hardAlpha"/>
<feOffset dy="4.62685"/>
<feGaussianBlur stdDeviation="2.31342"/>
<feComposite in2="hardAlpha" operator="out"/>
<feColorMatrix type="matrix" values="0 0 0 0 0 0 0 0 0 0 0 0 0 0 0 0 0 0 0.25 0"/>
<feBlend mode="normal" in2="BackgroundImageFix" result="effect1_dropShadow_2655_19204"/>
<feBlend mode="normal" in="SourceGraphic" in2="effect1_dropShadow_2655_19204" result="shape"/>
</filter>
<filter id="filter3_d_2655_19204" x="57.0259" y="116.374" width="65.968" height="65.9681" filterUnits="userSpaceOnUse" color-interpolation-filters="sRGB">
<feFlood flood-opacity="0" result="BackgroundImageFix"/>
<feColorMatrix in="SourceAlpha" type="matrix" values="0 0 0 0 0 0 0 0 0 0 0 0 0 0 0 0 0 0 127 0" result="hardAlpha"/>
<feOffset dy="4.62685"/>
<feGaussianBlur stdDeviation="2.31342"/>
<feComposite in2="hardAlpha" operator="out"/>
<feColorMatrix type="matrix" values="0 0 0 0 0 0 0 0 0 0 0 0 0 0 0 0 0 0 0.25 0"/>
<feBlend mode="normal" in2="BackgroundImageFix" result="effect1_dropShadow_2655_19204"/>
<feBlend mode="normal" in="SourceGraphic" in2="effect1_dropShadow_2655_19204" result="shape"/>
</filter>
<filter id="filter4_d_2655_19204" x="183.959" y="60.5679" width="61.298" height="61.2981" filterUnits="userSpaceOnUse" color-interpolation-filters="sRGB">
<feFlood flood-opacity="0" result="BackgroundImageFix"/>
<feColorMatrix in="SourceAlpha" type="matrix" values="0 0 0 0 0 0 0 0 0 0 0 0 0 0 0 0 0 0 127 0" result="hardAlpha"/>
<feOffset dy="4.62685"/>
<feGaussianBlur stdDeviation="2.31342"/>
<feComposite in2="hardAlpha" operator="out"/>
<feColorMatrix type="matrix" values="0 0 0 0 0 0 0 0 0 0 0 0 0 0 0 0 0 0 0.25 0"/>
<feBlend mode="normal" in2="BackgroundImageFix" result="effect1_dropShadow_2655_19204"/>
<feBlend mode="normal" in="SourceGraphic" in2="effect1_dropShadow_2655_19204" result="shape"/>
</filter>
<radialGradient id="paint0_radial_2655_19204" cx="0" cy="0" r="1" gradientUnits="userSpaceOnUse" gradientTransform="translate(95.1398 15.213) rotate(59.6415) scale(83.7113 83.6278)">
<stop offset="0.285577" stop-color="#4478FF" stop-opacity="0.8"/>
<stop offset="0.55203" stop-color="#6A3BF0" stop-opacity="0.54"/>
<stop offset="0.854429" stop-color="#5549DF" stop-opacity="0.24"/>
<stop offset="1" stop-color="#1D1A87" stop-opacity="0.12"/>
</radialGradient>
<radialGradient id="paint1_radial_2655_19204" cx="0" cy="0" r="1" gradientUnits="userSpaceOnUse" gradientTransform="translate(140.343 94.5317) rotate(-127.131) scale(74.5834 74.4718)">
<stop stop-color="#828EFA"/>
<stop offset="0.542232" stop-color="#0033CC" stop-opacity="0.1"/>
<stop offset="0.734375" stop-color="#010A25" stop-opacity="0.22"/>
</radialGradient>
<radialGradient id="paint2_radial_2655_19204" cx="0" cy="0" r="1" gradientUnits="userSpaceOnUse" gradientTransform="translate(106.781 32.2696) rotate(61.4546) scale(57.2611 57.2183)">
<stop offset="0.063556" stop-color="#B1F1FF"/>
<stop offset="0.421496" stop-color="#3056C9" stop-opacity="0.6"/>
<stop offset="0.813974" stop-color="#010A25" stop-opacity="0.22"/>
</radialGradient>
<linearGradient id="paint3_linear_2655_19204" x1="104.849" y1="94.1789" x2="135.299" y2="54.2842" gradientUnits="userSpaceOnUse">
<stop stop-color="#030D18"/>
<stop offset="0.848708" stop-color="#2850FF" stop-opacity="0.365517"/>
</linearGradient>
<linearGradient id="paint4_linear_2655_19204" x1="149.921" y1="49.616" x2="116.885" y2="90.8479" gradientUnits="userSpaceOnUse">
<stop stop-color="#0C2EE3" stop-opacity="0.74"/>
<stop offset="0.561958" stop-color="#4BA2F1" stop-opacity="0.78"/>
<stop offset="1" stop-color="#A56BEE"/>
</linearGradient>
<linearGradient id="paint5_linear_2655_19204" x1="109.361" y1="27.2624" x2="145.389" y2="49.7063" gradientUnits="userSpaceOnUse">
<stop offset="0.142994" stop-color="#D2EFFF"/>
<stop offset="1" stop-color="#4250F4"/>
</linearGradient>
<radialGradient id="paint6_radial_2655_19204" cx="0" cy="0" r="1" gradientUnits="userSpaceOnUse" gradientTransform="translate(136.538 50.8929) rotate(-79.6525) scale(22.6307 16.4596)">
<stop stop-color="#2E3192"/>
<stop offset="1"/>
</radialGradient>
<radialGradient id="paint7_radial_2655_19204" cx="0" cy="0" r="1" gradientUnits="userSpaceOnUse" gradientTransform="translate(164.245 122.732) rotate(59.6415) scale(130.413 130.283)">
<stop offset="0.285577" stop-color="#7544FF" stop-opacity="0.8"/>
<stop offset="0.55203" stop-color="#6A3BF0" stop-opacity="0.54"/>
<stop offset="0.854429" stop-color="#5549DF" stop-opacity="0.24"/>
<stop offset="1" stop-color="#1D1A87" stop-opacity="0.12"/>
</radialGradient>
<radialGradient id="paint8_radial_2655_19204" cx="0" cy="0" r="1" gradientUnits="userSpaceOnUse" gradientTransform="translate(234.667 246.302) rotate(-127.131) scale(116.193 116.019)">
<stop stop-color="#A882FA"/>
<stop offset="0.542232" stop-color="#2900CC" stop-opacity="0.1"/>
<stop offset="0.734375" stop-color="#010A25" stop-opacity="0.22"/>
</radialGradient>
<radialGradient id="paint9_radial_2655_19204" cx="0" cy="0" r="1" gradientUnits="userSpaceOnUse" gradientTransform="translate(182.381 149.304) rotate(61.4546) scale(89.2066 89.1399)">
<stop offset="0.063556" stop-color="#F4B1FF"/>
<stop offset="0.421496" stop-color="#7330C9" stop-opacity="0.6"/>
<stop offset="0.813974" stop-color="#1C0125" stop-opacity="0.22"/>
</radialGradient>
<linearGradient id="paint10_linear_2655_19204" x1="179.371" y1="245.752" x2="226.808" y2="183.6" gradientUnits="userSpaceOnUse">
<stop stop-color="#030D18"/>
<stop offset="0.848708" stop-color="#2850FF" stop-opacity="0.365517"/>
</linearGradient>
<linearGradient id="paint11_linear_2655_19204" x1="249.588" y1="176.328" x2="198.122" y2="240.563" gradientUnits="userSpaceOnUse">
<stop stop-color="#780CE3" stop-opacity="0.74"/>
<stop offset="0.561958" stop-color="#7286F3" stop-opacity="0.78"/>
<stop offset="1" stop-color="#A56BEE"/>
</linearGradient>
<linearGradient id="paint12_linear_2655_19204" x1="186.401" y1="141.503" x2="242.527" y2="176.468" gradientUnits="userSpaceOnUse">
<stop offset="0.142994" stop-color="#FCBFFD"/>
<stop offset="1" stop-color="#8F37FF"/>
</linearGradient>
<radialGradient id="paint13_radial_2655_19204" cx="0" cy="0" r="1" gradientUnits="userSpaceOnUse" gradientTransform="translate(228.739 178.317) rotate(-79.6525) scale(35.2562 25.6422)">
<stop stop-color="#2E3192"/>
<stop offset="1"/>
</radialGradient>
<radialGradient id="paint14_radial_2655_19204" cx="0" cy="0" r="1" gradientUnits="userSpaceOnUse" gradientTransform="translate(14.107 131.758) rotate(6.62407) scale(130.413 130.283)">
<stop offset="0.285577" stop-color="#4478FF" stop-opacity="0.8"/>
<stop offset="0.55203" stop-color="#6A3BF0" stop-opacity="0.54"/>
<stop offset="0.854429" stop-color="#5549DF" stop-opacity="0.24"/>
<stop offset="1" stop-color="#1D1A87" stop-opacity="0.12"/>
</radialGradient>
<radialGradient id="paint15_radial_2655_19204" cx="0" cy="0" r="1" gradientUnits="userSpaceOnUse" gradientTransform="translate(155.181 149.84) rotate(179.852) scale(116.193 116.019)">
<stop stop-color="#828EFA"/>
<stop offset="0.542232" stop-color="#0033CC" stop-opacity="0.1"/>
<stop offset="0.734375" stop-color="#010A25" stop-opacity="0.22"/>
</radialGradient>
<radialGradient id="paint16_radial_2655_19204" cx="0" cy="0" r="1" gradientUnits="userSpaceOnUse" gradientTransform="translate(46.2439 133.255) rotate(8.43716) scale(89.2066 89.1399)">
<stop offset="0.063556" stop-color="#B1F1FF"/>
<stop offset="0.421496" stop-color="#3056C9" stop-opacity="0.6"/>
<stop offset="0.813974" stop-color="#010A25" stop-opacity="0.22"/>
</radialGradient>
<linearGradient id="paint17_linear_2655_19204" x1="121.477" y1="193.68" x2="100.366" y2="118.398" gradientUnits="userSpaceOnUse">
<stop stop-color="#030D18"/>
<stop offset="0.848708" stop-color="#2850FF" stop-opacity="0.365517"/>
</linearGradient>
<linearGradient id="paint18_linear_2655_19204" x1="108.261" y1="95.8263" x2="128.612" y2="175.58" gradientUnits="userSpaceOnUse">
<stop stop-color="#4361FD" stop-opacity="0.74"/>
<stop offset="0.561958" stop-color="#905FF8" stop-opacity="0.78"/>
<stop offset="1" stop-color="#A57BFF"/>
</linearGradient>
<linearGradient id="paint19_linear_2655_19204" x1="42.4303" y1="125.352" x2="104.125" y2="101.551" gradientUnits="userSpaceOnUse">
<stop offset="0.142994" stop-color="#C5B0FF"/>
<stop offset="1" stop-color="#495BFF"/>
</linearGradient>
<radialGradient id="paint20_radial_2655_19204" cx="0" cy="0" r="1" gradientUnits="userSpaceOnUse" gradientTransform="translate(97.3071 113.677) rotate(-132.67) scale(35.2562 25.6422)">
<stop stop-color="#2E3192"/>
<stop offset="1"/>
</radialGradient>
<radialGradient id="paint21_radial_2655_19204" cx="0" cy="0" r="1" gradientUnits="userSpaceOnUse" gradientTransform="translate(156.876 46.5337) rotate(31.6789) scale(119.005 118.886)">
<stop offset="0.285577" stop-color="#4478FF" stop-opacity="0.8"/>
<stop offset="0.55203" stop-color="#6A3BF0" stop-opacity="0.54"/>
<stop offset="0.854429" stop-color="#5549DF" stop-opacity="0.24"/>
<stop offset="1" stop-color="#1D1A87" stop-opacity="0.12"/>
</radialGradient>
<radialGradient id="paint22_radial_2655_19204" cx="0" cy="0" r="1" gradientUnits="userSpaceOnUse" gradientTransform="translate(266.508 115.998) rotate(-155.094) scale(106.029 105.87)">
<stop stop-color="#828EFA"/>
<stop offset="0.542232" stop-color="#0033CC" stop-opacity="0.1"/>
<stop offset="0.734375" stop-color="#010A25" stop-opacity="0.22"/>
</radialGradient>
<radialGradient id="paint23_radial_2655_19204" cx="0" cy="0" r="1" gradientUnits="userSpaceOnUse" gradientTransform="translate(182.864 60.1906) rotate(33.492) scale(81.4031 81.3422)">
<stop offset="0.063556" stop-color="#B1F1FF"/>
<stop offset="0.421496" stop-color="#3056C9" stop-opacity="0.6"/>
<stop offset="0.813974" stop-color="#010A25" stop-opacity="0.22"/>
</radialGradient>
<linearGradient id="paint24_linear_2655_19204" x1="221.705" y1="139.215" x2="233.346" y2="68.824" gradientUnits="userSpaceOnUse">
<stop stop-color="#030D18"/>
<stop offset="0.848708" stop-color="#2850FF" stop-opacity="0.365517"/>
</linearGradient>
<linearGradient id="paint25_linear_2655_19204" x1="248.594" y1="53.2157" x2="234.598" y2="127.01" gradientUnits="userSpaceOnUse">
<stop stop-color="#0C2EE3" stop-opacity="0.74"/>
<stop offset="0.561958" stop-color="#4BA2F1" stop-opacity="0.78"/>
<stop offset="1" stop-color="#5855F8"/>
</linearGradient>
<linearGradient id="paint26_linear_2655_19204" x1="182.765" y1="52.1834" x2="242.964" y2="56.3495" gradientUnits="userSpaceOnUse">
<stop stop-color="#87BEFF"/>
<stop offset="1" stop-color="#4642F4"/>
</linearGradient>
<radialGradient id="paint27_radial_2655_19204" cx="0" cy="0" r="1" gradientUnits="userSpaceOnUse" gradientTransform="translate(232.641 63.7394) rotate(-107.615) scale(32.1721 23.3991)">
<stop stop-color="#2E3192"/>
<stop offset="1"/>
</radialGradient>
</defs>
</svg>
