<svg width="120" height="140" viewBox="0 0 120 140" fill="none" xmlns="http://www.w3.org/2000/svg">
<path opacity="0.3" d="M60 139.832L7.33541 113.5L60 87.1677L112.665 113.5L60 139.832Z" stroke="#C4A8FF" stroke-width="0.3"/>
<path opacity="0.4" d="M60 132.832L21.3354 113.5L60 94.1677L98.6646 113.5L60 132.832Z" stroke="#C2A5FF" stroke-width="0.3"/>
<path d="M12.5 35.6668C12.5 35.6668 28.9724 19 58.5 19C88.0276 19 103.5 35.6668 103.5 35.6668L85.8068 109H31.8214L12.5 35.6668Z" fill="url(#paint0_linear_2655_18376)"/>
<path d="M57.3564 83C71.5259 83 83.0136 88.7426 83.0136 95.8299C83.0136 102.917 71.5259 108.66 57.3564 108.66C43.1868 108.66 31.6814 102.915 31.6814 95.8299C31.6814 88.7451 43.1818 83 57.3564 83Z" fill="url(#paint1_linear_2655_18376)"/>
<path d="M41.176 116.797C42.028 117.143 42.922 117.461 43.8579 117.751V117.76C44.6053 117.987 45.3654 118.198 46.1458 118.386V118.381C46.8407 118.551 47.5508 118.703 48.2786 118.842V118.843C48.9548 118.972 49.6445 119.086 50.3479 119.184V108.177C49.648 108.077 48.9599 107.963 48.2837 107.834V107.834C47.555 107.696 46.8423 107.543 46.1458 107.373V107.378C45.3572 107.191 44.6014 106.982 43.8706 106.757V106.748C42.9216 106.457 42.0234 106.136 41.176 105.787C35.3903 103.436 31.6941 99.8489 31.6941 95.8298V106.837C31.6941 110.856 35.3903 114.443 41.176 116.797Z" fill="url(#paint2_linear_2655_18376)"/>
<path d="M83.0135 95.9798V106.987C83.0036 107.358 82.9628 107.728 82.8915 108.093V97.0856C82.9628 96.7211 83.0036 96.3512 83.0135 95.9798Z" fill="url(#paint3_linear_2655_18376)"/>
<path d="M82.8864 97.0856V108.093C82.8182 108.447 82.7221 108.795 82.5992 109.134V109.148C82.4693 109.501 82.3147 109.845 82.1365 110.177C81.9431 110.531 81.7257 110.871 81.4858 111.194V111.207C81.2153 111.579 80.9216 111.934 80.6062 112.269V101.262C80.9216 100.927 81.2153 100.572 81.4858 100.2V100.187C81.7268 99.8587 81.9443 99.5139 82.1365 99.1549V99.1676C82.3119 98.8441 82.4648 98.5089 82.5941 98.1644V98.1406C82.7195 97.7973 82.8172 97.4445 82.8864 97.0856Z" fill="url(#paint4_linear_2655_18376)"/>
<path d="M80.5986 101.262V112.269C80.2252 112.667 79.8279 113.042 79.4089 113.392V113.398C78.847 113.865 78.256 114.296 77.6396 114.688V114.695C76.5179 115.409 75.3395 116.031 74.1163 116.553C72.5385 117.224 70.9131 117.777 69.2533 118.208C67.7203 118.607 66.1664 118.921 64.5987 119.148C63.6131 119.293 62.5996 119.402 61.5584 119.496V119.497C60.7297 119.565 59.8857 119.614 59.0341 119.639C58.4774 119.659 57.9182 119.667 57.3564 119.667H56.6954V119.657C55.9608 119.656 55.2313 119.624 54.5143 119.583V108.576C55.2337 108.616 55.9658 108.642 56.703 108.65V108.66H57.3564C57.9173 108.66 58.4766 108.65 59.0341 108.632C59.8822 108.606 60.7228 108.556 61.5482 108.49V108.489C62.5829 108.403 63.5997 108.286 64.5987 108.141C66.1664 107.913 67.7203 107.599 69.2533 107.201C70.9131 106.77 72.5385 106.217 74.1163 105.546C75.3358 105.025 76.5107 104.406 77.6294 103.694V103.687C78.2468 103.295 78.8386 102.864 79.4013 102.397V102.391C79.8231 102.04 80.2229 101.663 80.5986 101.262Z" fill="url(#paint5_linear_2655_18376)"/>
<path d="M54.5067 119.588V114.085V108.581C53.7983 108.542 53.0992 108.489 52.4095 108.421C51.7129 108.344 51.0266 108.261 50.3529 108.167V119.174C51.0266 119.278 51.7129 119.362 52.4095 119.428C53.0992 119.496 53.7983 119.549 54.5067 119.588Z" fill="url(#paint6_linear_2655_18376)"/>
<path d="M57.3564 62C71.5259 62 83.0136 67.7426 83.0136 74.8299C83.0136 81.9172 71.5259 87.6597 57.3564 87.6597C43.1868 87.6597 31.6814 81.9146 31.6814 74.8299C31.6814 67.7451 43.1818 62 57.3564 62Z" fill="url(#paint7_linear_2655_18376)"/>
<path d="M41.176 95.7969C42.028 96.1427 42.922 96.4609 43.8579 96.7513V96.7603C44.6053 96.9866 45.3654 97.1976 46.1458 97.3857V97.3806C46.8407 97.5505 47.5508 97.7027 48.2786 97.8423V97.8432C48.9548 97.972 49.6445 98.0856 50.3479 98.1839V87.1767C49.648 87.077 48.9599 86.9629 48.2837 86.8345V86.8335C47.555 86.6962 46.8423 86.5429 46.1458 86.3734V86.3785C45.3572 86.1915 44.6014 85.9818 43.8706 85.757V85.748C42.9216 85.4565 42.0234 85.1362 41.176 84.7871C35.3903 82.4357 31.6941 78.8489 31.6941 74.8298V85.837C31.6941 89.8561 35.3903 93.4429 41.176 95.7969Z" fill="url(#paint8_linear_2655_18376)"/>
<path d="M83.0135 74.9798V85.987C83.0036 86.3584 82.9628 86.7283 82.8915 87.0928V76.0856C82.9628 75.7211 83.0036 75.3512 83.0135 74.9798Z" fill="url(#paint9_linear_2655_18376)"/>
<path d="M82.8864 76.0856V87.0928C82.8182 87.4468 82.7221 87.7949 82.5992 88.1338V88.1478C82.4693 88.5014 82.3147 88.8454 82.1365 89.1773C81.9431 89.5308 81.7257 89.8705 81.4858 90.1942V90.2068C81.2153 90.5793 80.9216 90.9342 80.6062 91.2694V80.2622C80.9216 79.927 81.2153 79.5721 81.4858 79.1996V79.187C81.7268 78.8587 81.9443 78.5138 82.1365 78.1549V78.1676C82.3119 77.8441 82.4648 77.5089 82.5941 77.1644V77.1406C82.7195 76.7973 82.8172 76.4445 82.8864 76.0856Z" fill="url(#paint10_linear_2655_18376)"/>
<path d="M80.5986 80.2622V91.2694C80.2252 91.6674 79.8279 92.0422 79.4089 92.3918V92.3981C78.847 92.8651 78.256 93.296 77.6396 93.6881V93.6946C76.5179 94.4091 75.3395 95.0306 74.1163 95.5528C72.5385 96.2243 70.9131 96.7774 69.2533 97.2077C67.7203 97.6067 66.1664 97.9207 64.5987 98.1483C63.6131 98.2927 62.5996 98.4018 61.5584 98.4956V98.4966C60.7297 98.5652 59.8857 98.6135 59.0341 98.6389C58.4774 98.6593 57.9182 98.6669 57.3564 98.6669H56.6954V98.6567C55.9608 98.6565 55.2313 98.6235 54.5143 98.583V87.5758C55.2337 87.6165 55.9658 87.6419 56.703 87.6495V87.6597H57.3564C57.9173 87.6597 58.4766 87.6504 59.0341 87.6318C59.8822 87.6064 60.7228 87.5559 61.5482 87.4902V87.4894C62.5829 87.4029 63.5997 87.286 64.5987 87.1411C66.1664 86.9135 67.7203 86.5995 69.2533 86.2005C70.9131 85.7702 72.5385 85.2171 74.1163 84.5456C75.3358 84.025 76.5107 83.4057 77.6294 82.6939V82.6874C78.2468 82.2953 78.8386 81.8644 79.4013 81.3973V81.3909C79.8231 81.0395 80.2229 80.6626 80.5986 80.2622Z" fill="url(#paint11_linear_2655_18376)"/>
<path d="M54.5067 98.5881V93.0845V87.5809C53.7983 87.5419 53.0992 87.4885 52.4095 87.4208C51.7129 87.3445 51.0266 87.2606 50.3529 87.1665V98.1737C51.0266 98.278 51.7129 98.3619 52.4095 98.4279C53.0992 98.4957 53.7983 98.5491 54.5067 98.5881Z" fill="url(#paint12_linear_2655_18376)"/>
<path d="M57.3564 41C71.5259 41 83.0136 46.7426 83.0136 53.8299C83.0136 60.9172 71.5259 66.6597 57.3564 66.6597C43.1868 66.6597 31.6814 60.9146 31.6814 53.8299C31.6814 46.7451 43.1818 41 57.3564 41Z" fill="url(#paint13_linear_2655_18376)"/>
<path d="M41.176 74.7969C42.028 75.1427 42.922 75.4609 43.8579 75.7513V75.7603C44.6053 75.9866 45.3654 76.1976 46.1458 76.3857V76.3806C46.8407 76.5505 47.5508 76.7027 48.2786 76.8423V76.8433C48.9548 76.972 49.6445 77.0856 50.3479 77.1839V66.1767C49.648 66.077 48.9599 65.9629 48.2837 65.8345V65.8335C47.555 65.6962 46.8423 65.5429 46.1458 65.3734V65.3785C45.3572 65.1915 44.6014 64.9818 43.8706 64.757V64.748C42.9216 64.4565 42.0234 64.1362 41.176 63.7871C35.3903 61.4357 31.6941 57.8489 31.6941 53.8298V64.837C31.6941 68.8561 35.3903 72.4429 41.176 74.7969Z" fill="url(#paint14_linear_2655_18376)"/>
<path d="M83.0135 53.9798V64.987C83.0036 65.3584 82.9628 65.7283 82.8915 66.0928V55.0856C82.9628 54.7211 83.0036 54.3512 83.0135 53.9798Z" fill="url(#paint15_linear_2655_18376)"/>
<path d="M82.8864 55.0856V66.0928C82.8182 66.4468 82.7221 66.7949 82.5992 67.1338V67.1478C82.4693 67.5014 82.3147 67.8454 82.1365 68.1773C81.9431 68.5308 81.7257 68.8705 81.4858 69.1942V69.2068C81.2153 69.5793 80.9216 69.9342 80.6062 70.2694V59.2622C80.9216 58.927 81.2153 58.5721 81.4858 58.1997V58.187C81.7268 57.8587 81.9443 57.5138 82.1365 57.1549V57.1676C82.3119 56.8441 82.4648 56.5089 82.5941 56.1644V56.1406C82.7195 55.7973 82.8172 55.4445 82.8864 55.0856Z" fill="url(#paint16_linear_2655_18376)"/>
<path d="M80.5986 59.2622V70.2694C80.2252 70.6674 79.8279 71.0422 79.4089 71.3918V71.3981C78.847 71.8651 78.256 72.296 77.6396 72.6881V72.6946C76.5179 73.4091 75.3395 74.0306 74.1163 74.5528C72.5385 75.2243 70.9131 75.7774 69.2533 76.2077C67.7203 76.6067 66.1664 76.9207 64.5987 77.1483C63.6131 77.2927 62.5996 77.4018 61.5584 77.4956V77.4966C60.7297 77.5652 59.8857 77.6135 59.0341 77.6389C58.4774 77.6593 57.9182 77.6669 57.3564 77.6669H56.6954V77.6567C55.9608 77.6565 55.2313 77.6235 54.5143 77.583V66.5758C55.2337 66.6165 55.9658 66.6419 56.703 66.6495V66.6597H57.3564C57.9173 66.6597 58.4766 66.6504 59.0341 66.6318C59.8822 66.6064 60.7228 66.5559 61.5482 66.4902V66.4894C62.5829 66.4029 63.5997 66.286 64.5987 66.1411C66.1664 65.9135 67.7203 65.5995 69.2533 65.2005C70.9131 64.7702 72.5385 64.2171 74.1163 63.5456C75.3358 63.025 76.5107 62.4057 77.6294 61.6939V61.6874C78.2468 61.2953 78.8386 60.8644 79.4013 60.3973V60.3909C79.8231 60.0395 80.2229 59.6626 80.5986 59.2622Z" fill="url(#paint17_linear_2655_18376)"/>
<path d="M54.5067 77.5881V72.0845V66.5809C53.7983 66.5419 53.0992 66.4885 52.4095 66.4208C51.7129 66.3445 51.0266 66.2606 50.3529 66.1665V77.1737C51.0266 77.278 51.7129 77.3619 52.4095 77.4279C53.0992 77.4957 53.7983 77.5491 54.5067 77.5881Z" fill="url(#paint18_linear_2655_18376)"/>
<path d="M57.3564 20C71.5259 20 83.0136 25.7426 83.0136 32.8299C83.0136 39.9172 71.5259 45.6597 57.3564 45.6597C43.1868 45.6597 31.6814 39.9146 31.6814 32.8299C31.6814 25.7451 43.1818 20 57.3564 20Z" fill="url(#paint19_linear_2655_18376)"/>
<path d="M41.176 53.7969C42.028 54.1427 42.922 54.4609 43.8579 54.7513V54.7603C44.6053 54.9866 45.3654 55.1976 46.1458 55.3857V55.3806C46.8407 55.5505 47.5508 55.7027 48.2786 55.8423V55.8433C48.9548 55.972 49.6445 56.0856 50.3479 56.1839V45.1767C49.648 45.077 48.9599 44.9629 48.2837 44.8345V44.8335C47.555 44.6962 46.8423 44.5429 46.1458 44.3734V44.3785C45.3572 44.1915 44.6014 43.9818 43.8706 43.757V43.748C42.9216 43.4565 42.0234 43.1362 41.176 42.7871C35.3903 40.4357 31.6941 36.8489 31.6941 32.8298V43.837C31.6941 47.8561 35.3903 51.4429 41.176 53.7969Z" fill="url(#paint20_linear_2655_18376)"/>
<path d="M83.0135 32.9798V43.987C83.0036 44.3584 82.9628 44.7283 82.8915 45.0928V34.0856C82.9628 33.7211 83.0036 33.3512 83.0135 32.9798Z" fill="url(#paint21_linear_2655_18376)"/>
<path d="M82.8864 34.0856V45.0928C82.8182 45.4468 82.7221 45.7949 82.5992 46.1338V46.1478C82.4693 46.5014 82.3147 46.8454 82.1365 47.1773C81.9431 47.5308 81.7257 47.8705 81.4858 48.1942V48.2068C81.2153 48.5793 80.9216 48.9342 80.6062 49.2694V38.2622C80.9216 37.927 81.2153 37.5721 81.4858 37.1997V37.187C81.7268 36.8587 81.9443 36.5138 82.1365 36.1549V36.1676C82.3119 35.8441 82.4648 35.5089 82.5941 35.1644V35.1406C82.7195 34.7973 82.8172 34.4445 82.8864 34.0856Z" fill="url(#paint22_linear_2655_18376)"/>
<path d="M80.5986 38.2622V49.2694C80.2252 49.6674 79.8279 50.0422 79.4089 50.3918V50.3981C78.847 50.8651 78.256 51.296 77.6396 51.6881V51.6946C76.5179 52.4091 75.3395 53.0306 74.1163 53.5528C72.5385 54.2243 70.9131 54.7774 69.2533 55.2077C67.7203 55.6067 66.1664 55.9207 64.5987 56.1483C63.6131 56.2927 62.5996 56.4018 61.5584 56.4956V56.4966C60.7297 56.5652 59.8857 56.6135 59.0341 56.6389C58.4774 56.6593 57.9182 56.6669 57.3564 56.6669H56.6954V56.6567C55.9608 56.6565 55.2313 56.6235 54.5143 56.583V45.5758C55.2337 45.6165 55.9658 45.6419 56.703 45.6495V45.6597H57.3564C57.9173 45.6597 58.4766 45.6504 59.0341 45.6318C59.8822 45.6064 60.7228 45.5559 61.5482 45.4902V45.4894C62.5829 45.4029 63.5997 45.286 64.5987 45.1411C66.1664 44.9135 67.7203 44.5995 69.2533 44.2005C70.9131 43.7702 72.5385 43.2171 74.1163 42.5456C75.3358 42.025 76.5107 41.4057 77.6294 40.6939V40.6874C78.2468 40.2953 78.8386 39.8644 79.4013 39.3973V39.3909C79.8231 39.0395 80.2229 38.6626 80.5986 38.2622Z" fill="url(#paint23_linear_2655_18376)"/>
<path d="M54.5067 56.5881V51.0845V45.5809C53.7983 45.5419 53.0992 45.4885 52.4095 45.4208C51.7129 45.3445 51.0266 45.2606 50.3529 45.1665V56.1737C51.0266 56.278 51.7129 56.3619 52.4095 56.4279C53.0992 56.4957 53.7983 56.5491 54.5067 56.5881Z" fill="url(#paint24_linear_2655_18376)"/>
<path d="M99.3853 104.662L91.2675 101.147L100.882 97.6975L109 101.217L99.3853 104.662Z" fill="#918FEF"/>
<path d="M92.6115 127.178L84.4968 123.659L68 109.487L76.1146 113.006L92.6115 127.178Z" fill="#7566CE"/>
<path d="M76.1146 113.006L68 109.487L77.6146 106.042L85.7293 109.557L76.1146 113.006Z" fill="#ACAAF6"/>
<path d="M99.3853 104.662L109 101.216L92.6114 127.178L76.1146 113.006L85.7293 109.557L85.6497 79.4139L99.3025 74.519L99.3853 104.662Z" fill="url(#paint25_linear_2655_18376)"/>
<path d="M85.7293 109.557L77.6147 106.042L77.5319 75.895L85.6497 79.4141L85.7293 109.557Z" fill="url(#paint26_linear_2655_18376)"/>
<path d="M85.6497 79.414L77.5319 75.8949L91.1879 71L99.3026 74.5191L85.6497 79.414Z" fill="#ACAAF6"/>
<defs>
<linearGradient id="paint0_linear_2655_18376" x1="58.5" y1="113" x2="58.5" y2="25.5" gradientUnits="userSpaceOnUse">
<stop stop-color="#573CFE"/>
<stop offset="0.945189" stop-color="#7545FF" stop-opacity="0"/>
</linearGradient>
<linearGradient id="paint1_linear_2655_18376" x1="83" y1="93.5" x2="32" y2="96" gradientUnits="userSpaceOnUse">
<stop stop-color="#7165FF"/>
<stop offset="1" stop-color="#8E7BFF"/>
</linearGradient>
<linearGradient id="paint2_linear_2655_18376" x1="33.4735" y1="105.116" x2="63.343" y2="104.353" gradientUnits="userSpaceOnUse">
<stop stop-color="#7354EE"/>
<stop offset="1" stop-color="#3646ED"/>
</linearGradient>
<linearGradient id="paint3_linear_2655_18376" x1="33.4735" y1="105.116" x2="63.343" y2="104.353" gradientUnits="userSpaceOnUse">
<stop stop-color="#7354EE"/>
<stop offset="1" stop-color="#3646ED"/>
</linearGradient>
<linearGradient id="paint4_linear_2655_18376" x1="33.4735" y1="105.116" x2="63.343" y2="104.353" gradientUnits="userSpaceOnUse">
<stop stop-color="#7354EE"/>
<stop offset="1" stop-color="#3646ED"/>
</linearGradient>
<linearGradient id="paint5_linear_2655_18376" x1="33.4735" y1="105.116" x2="63.343" y2="104.353" gradientUnits="userSpaceOnUse">
<stop stop-color="#7354EE"/>
<stop offset="1" stop-color="#3646ED"/>
</linearGradient>
<linearGradient id="paint6_linear_2655_18376" x1="33.4735" y1="105.116" x2="63.343" y2="104.353" gradientUnits="userSpaceOnUse">
<stop stop-color="#7354EE"/>
<stop offset="1" stop-color="#3646ED"/>
</linearGradient>
<linearGradient id="paint7_linear_2655_18376" x1="79" y1="75" x2="32" y2="75" gradientUnits="userSpaceOnUse">
<stop stop-color="#7E73FF"/>
<stop offset="1" stop-color="#907EFF"/>
</linearGradient>
<linearGradient id="paint8_linear_2655_18376" x1="33.4735" y1="84.1161" x2="63.343" y2="83.3534" gradientUnits="userSpaceOnUse">
<stop stop-color="#7354EE"/>
<stop offset="1" stop-color="#3646ED"/>
</linearGradient>
<linearGradient id="paint9_linear_2655_18376" x1="33.4735" y1="84.1161" x2="63.343" y2="83.3534" gradientUnits="userSpaceOnUse">
<stop stop-color="#7354EE"/>
<stop offset="1" stop-color="#3646ED"/>
</linearGradient>
<linearGradient id="paint10_linear_2655_18376" x1="33.4735" y1="84.1161" x2="63.343" y2="83.3534" gradientUnits="userSpaceOnUse">
<stop stop-color="#7354EE"/>
<stop offset="1" stop-color="#3646ED"/>
</linearGradient>
<linearGradient id="paint11_linear_2655_18376" x1="33.4735" y1="84.1161" x2="63.343" y2="83.3534" gradientUnits="userSpaceOnUse">
<stop stop-color="#7354EE"/>
<stop offset="1" stop-color="#3646ED"/>
</linearGradient>
<linearGradient id="paint12_linear_2655_18376" x1="33.4735" y1="84.1161" x2="63.343" y2="83.3534" gradientUnits="userSpaceOnUse">
<stop stop-color="#7354EE"/>
<stop offset="1" stop-color="#3646ED"/>
</linearGradient>
<linearGradient id="paint13_linear_2655_18376" x1="57.3475" y1="41" x2="57.3475" y2="66.6597" gradientUnits="userSpaceOnUse">
<stop stop-color="#8075FF"/>
<stop offset="1" stop-color="#9584FF"/>
</linearGradient>
<linearGradient id="paint14_linear_2655_18376" x1="33.4735" y1="63.1161" x2="63.343" y2="62.3534" gradientUnits="userSpaceOnUse">
<stop stop-color="#7354EE"/>
<stop offset="1" stop-color="#3646ED"/>
</linearGradient>
<linearGradient id="paint15_linear_2655_18376" x1="33.4735" y1="63.1161" x2="63.343" y2="62.3534" gradientUnits="userSpaceOnUse">
<stop stop-color="#7354EE"/>
<stop offset="1" stop-color="#3646ED"/>
</linearGradient>
<linearGradient id="paint16_linear_2655_18376" x1="33.4735" y1="63.1161" x2="63.343" y2="62.3534" gradientUnits="userSpaceOnUse">
<stop stop-color="#7354EE"/>
<stop offset="1" stop-color="#3646ED"/>
</linearGradient>
<linearGradient id="paint17_linear_2655_18376" x1="33.4735" y1="63.1161" x2="63.343" y2="62.3534" gradientUnits="userSpaceOnUse">
<stop stop-color="#7354EE"/>
<stop offset="1" stop-color="#3646ED"/>
</linearGradient>
<linearGradient id="paint18_linear_2655_18376" x1="33.4735" y1="63.1161" x2="63.343" y2="62.3534" gradientUnits="userSpaceOnUse">
<stop stop-color="#7354EE"/>
<stop offset="1" stop-color="#3646ED"/>
</linearGradient>
<linearGradient id="paint19_linear_2655_18376" x1="57.3475" y1="20" x2="57.3475" y2="45.6597" gradientUnits="userSpaceOnUse">
<stop stop-color="#8C82FF"/>
<stop offset="1" stop-color="#A495FF"/>
</linearGradient>
<linearGradient id="paint20_linear_2655_18376" x1="33.4735" y1="42.1161" x2="63.343" y2="41.3534" gradientUnits="userSpaceOnUse">
<stop stop-color="#7354EE"/>
<stop offset="1" stop-color="#3646ED"/>
</linearGradient>
<linearGradient id="paint21_linear_2655_18376" x1="33.4735" y1="42.1161" x2="63.343" y2="41.3534" gradientUnits="userSpaceOnUse">
<stop stop-color="#7354EE"/>
<stop offset="1" stop-color="#3646ED"/>
</linearGradient>
<linearGradient id="paint22_linear_2655_18376" x1="33.4735" y1="42.1161" x2="63.343" y2="41.3534" gradientUnits="userSpaceOnUse">
<stop stop-color="#7354EE"/>
<stop offset="1" stop-color="#3646ED"/>
</linearGradient>
<linearGradient id="paint23_linear_2655_18376" x1="33.4735" y1="42.1161" x2="63.343" y2="41.3534" gradientUnits="userSpaceOnUse">
<stop stop-color="#7354EE"/>
<stop offset="1" stop-color="#3646ED"/>
</linearGradient>
<linearGradient id="paint24_linear_2655_18376" x1="33.4735" y1="42.1161" x2="63.343" y2="41.3534" gradientUnits="userSpaceOnUse">
<stop stop-color="#7354EE"/>
<stop offset="1" stop-color="#3646ED"/>
</linearGradient>
<linearGradient id="paint25_linear_2655_18376" x1="92.5573" y1="74.519" x2="92.5573" y2="127.178" gradientUnits="userSpaceOnUse">
<stop stop-color="#7C44F1"/>
<stop offset="1" stop-color="#340CD2"/>
</linearGradient>
<linearGradient id="paint26_linear_2655_18376" x1="81.6306" y1="75.895" x2="81.6306" y2="109.557" gradientUnits="userSpaceOnUse">
<stop stop-color="#988FFF"/>
<stop offset="1" stop-color="#A181FC"/>
</linearGradient>
</defs>
</svg>
