<svg xmlns="http://www.w3.org/2000/svg" viewBox="0 0 24 24" fill="none" class="css-1hydu6d"><path d="M9.13675 12.4328C9.13675 13.0522 9.591 13.5576 10.148 13.5576C10.7103 13.5576 11.1591 13.052 11.1591 12.4328C11.1705 11.8134 10.71 11.308 10.148 11.308C9.57993 11.308 9.13675 11.8136 9.13675 12.4328Z" fill="currentColor"/><path d="M12.8691 12.4328C12.8691 13.0522 13.3245 13.5576 13.8808 13.5576C14.4488 13.5576 14.892 13.052 14.892 12.4328C14.9034 11.8134 14.4428 11.308 13.8808 11.308C13.3129 11.308 12.8691 11.8136 12.8691 12.4328Z" fill="currentColor"/><path fill-rule="evenodd" clip-rule="evenodd" d="M21 12C21 16.9706 16.9706 21 12 21C7.02944 21 3 16.9706 3 12C3 7.02944 7.02944 3 12 3C16.9706 3 21 7.02944 21 12ZM13.5968 7.75181C14.4092 7.88803 15.1875 8.13257 15.9203 8.46763H15.9224C17.1946 10.3253 17.8264 12.4272 17.5819 14.8472C16.6098 15.5573 15.6611 15.989 14.7351 16.2731C14.5076 15.9663 14.3033 15.6367 14.1272 15.2903C14.4624 15.1652 14.7811 15.0118 15.0872 14.8302C15.027 14.7872 14.9694 14.7409 14.9104 14.6936C14.8918 14.6787 14.873 14.6636 14.854 14.6485C13.0247 15.4949 11.0188 15.4949 9.1668 14.6485C9.09199 14.7107 9.01279 14.7736 8.93358 14.8302C9.24029 15.0118 9.55856 15.1652 9.89362 15.2903C9.7176 15.6368 9.5133 15.9663 9.28574 16.2731C8.3592 15.989 7.41613 15.5573 6.43893 14.8472C6.24016 12.7566 6.63783 10.6377 8.10919 8.46763C8.8369 8.13213 9.61514 7.88822 10.4332 7.75181C10.5287 7.92782 10.6488 8.1667 10.728 8.35403C11.5801 8.22894 12.438 8.22894 13.302 8.35403C13.3812 8.1667 13.4943 7.92782 13.5968 7.75181Z" fill="currentColor"/></svg>