<svg xmlns="http://www.w3.org/2000/svg" viewBox="0 0 24 24" fill="none" class="css-1hydu6d"><path d="M12 4.625c2.407 0 2.685.01 3.641.052.874.04 1.358.185 1.666.308.422.165.72.36 1.04.669.318.319.514.617.668 1.039.123.318.267.792.308 1.666.042.946.052 1.234.052 3.641s-.01 2.685-.052 3.641c-.04.874-.185 1.358-.308 1.666-.165.422-.36.72-.669 1.04a2.66 2.66 0 01-1.039.668c-.318.123-.792.267-1.666.308-.946.042-1.234.052-3.641.052s-2.685-.01-3.641-.052c-.874-.04-1.358-.185-1.666-.308a2.911 2.911 0 01-1.04-.669 2.659 2.659 0 01-.668-1.039c-.123-.318-.267-.792-.308-1.666-.042-.946-.052-1.234-.052-3.641s.01-2.685.052-3.641c.04-.874.185-1.358.308-1.666.165-.422.36-.72.669-1.04a2.658 2.658 0 011.039-.668c.318-.123.792-.267 1.666-.308.956-.042 1.234-.052 3.641-.052zM12 3c-2.448 0-2.746.01-3.713.051-.957.052-1.615.196-2.18.422a4.311 4.311 0 00-1.595 1.039 4.311 4.311 0 00-1.039 1.594c-.226.566-.37 1.224-.422 2.18C3.011 9.255 3 9.553 3 12s.01 2.746.051 3.713c.042.957.196 1.615.422 2.18.226.597.535 1.091 1.039 1.595.504.504.998.813 1.594 1.039.576.226 1.224.37 2.18.422.957.04 1.266.051 3.714.051s2.746-.01 3.713-.051c.957-.042 1.615-.196 2.18-.422a4.311 4.311 0 001.595-1.039 4.311 4.311 0 001.039-1.594c.226-.576.37-1.224.422-2.18.04-.957.051-1.266.051-3.714s-.01-2.746-.051-3.713c-.042-.957-.196-1.615-.422-2.18a4.312 4.312 0 00-1.039-1.595 4.311 4.311 0 00-1.594-1.039c-.576-.226-1.224-.37-2.18-.422C14.745 3.011 14.447 3 12 3z" fill="currentColor"/><path d="M12 7.382a4.618 4.618 0 100 9.236 4.618 4.618 0 000-9.236zm0 7.622A3.007 3.007 0 018.997 12 3.007 3.007 0 0112 8.997 3.007 3.007 0 0115.004 12 3.007 3.007 0 0112 15.004zM16.803 8.276a1.08 1.08 0 100-2.16 1.08 1.08 0 000 2.16z" fill="currentColor"/></svg>