<svg width="95" height="133" viewBox="0 0 95 133" fill="none" xmlns="http://www.w3.org/2000/svg">
<path opacity="0.3" d="M47.5588 132.445C73.2725 132.445 94.1175 124.287 94.1175 114.223C94.1175 104.159 73.2725 96 47.5588 96C21.8451 96 1 104.159 1 114.223C1 124.287 21.8451 132.445 47.5588 132.445Z" stroke="#74C0D8" stroke-width="0.5" stroke-miterlimit="10"/>
<path opacity="0.4" d="M47.7153 126.632C65.3884 126.632 79.7153 120.812 79.7153 113.632C79.7153 106.453 65.3884 100.632 47.7153 100.632C30.0422 100.632 15.7153 106.453 15.7153 113.632C15.7153 120.812 30.0422 126.632 47.7153 126.632Z" stroke="#74C0D8" stroke-width="0.5" stroke-miterlimit="10"/>
<path opacity="0.5" d="M47.7153 121.632C58.761 121.632 67.7153 118.051 67.7153 113.632C67.7153 109.214 58.761 105.632 47.7153 105.632C36.6696 105.632 27.7153 109.214 27.7153 113.632C27.7153 118.051 36.6696 121.632 47.7153 121.632Z" stroke="#74C0D8" stroke-width="0.5" stroke-miterlimit="10"/>
<path d="M47.8538 93.4512H47.055V93.4595C46.8141 93.4595 46.5543 93.4804 46.3047 93.5004L46.1895 93.5096C45.8332 93.5402 45.4853 93.5792 45.1458 93.6293V93.6209C44.6075 93.6979 44.0741 93.8057 43.5482 93.9438V93.9522C42.9782 94.1006 42.42 94.2913 41.8783 94.5227V83.4345C42.4204 83.2078 42.9786 83.0217 43.5482 82.8778V82.8639C44.0748 82.7285 44.608 82.6207 45.1458 82.541C45.4853 82.4909 45.8332 82.452 46.1895 82.4214C46.4678 82.3991 46.7628 82.3824 47.055 82.3741L47.8538 82.3741V82.3657C48.108 82.3657 48.3585 82.3741 48.6053 82.3908C48.8474 82.4047 49.0868 82.4214 49.3233 82.4465V93.5319C49.0868 93.5096 48.8474 93.4902 48.6053 93.479C48.3576 93.4651 48.1071 93.4567 47.8538 93.4512Z" fill="#069EB3"/>
<path d="M50.0331 82.5303V82.5299C49.8021 82.4965 49.5655 82.4687 49.3261 82.4464V93.5347C49.5655 93.5597 49.8021 93.5876 50.0331 93.6209V93.6186C50.2751 93.6519 50.5108 93.6907 50.74 93.7351V93.7406C50.9905 93.7879 51.2382 93.8408 51.4775 93.8993V93.8937C51.7447 93.9577 52.0063 94.0301 52.2596 94.108C52.5852 94.2082 52.8942 94.3195 53.1892 94.4392C55.182 95.2491 56.4567 96.4737 56.4567 97.8653V86.7771C56.4567 85.3966 55.182 84.1609 53.1892 83.351C52.8942 83.2313 52.5852 83.1228 52.2596 83.0226C52.0063 82.9419 51.7559 82.8695 51.4775 82.8055C51.2382 82.747 50.9905 82.6941 50.74 82.6468C50.5108 82.6025 50.2751 82.5637 50.0331 82.5303Z" fill="#069EB3"/>
<path d="M41.87 94.5227V83.4345C41.4483 83.6156 41.0417 83.8296 40.6537 84.0746C40.4422 84.2123 40.2387 84.3619 40.0442 84.5227C39.899 84.644 39.7615 84.7741 39.6323 84.9123V84.9067C39.5226 85.0209 39.4213 85.1428 39.3289 85.2713V85.2769C39.2465 85.3904 39.1721 85.5094 39.1063 85.6332C39.0432 85.7462 38.9901 85.8644 38.9476 85.9867C38.9036 86.1033 38.8692 86.2234 38.8446 86.3457C38.8221 86.4707 38.809 86.5972 38.8057 86.7242V97.8124C38.8089 97.6855 38.8219 97.5589 38.8446 97.4339C38.8695 97.3108 38.904 97.1898 38.9476 97.0721C38.9906 96.9501 39.0437 96.8319 39.1063 96.7186V96.713C39.1722 96.5902 39.2465 96.4721 39.3289 96.3596V96.3651C39.4219 96.2362 39.5233 96.1135 39.6323 95.9978C39.7622 95.8612 39.8997 95.732 40.0442 95.6109C40.238 95.4492 40.4415 95.2996 40.6537 95.1629C41.0404 94.9157 41.4473 94.7016 41.87 94.5227Z" fill="#069EB3"/>
<path d="M47.6284 76.24C59.2482 76.24 68.7027 80.9714 68.7027 86.7772C68.7027 92.5829 59.2399 97.3115 47.6284 97.3115C36.0169 97.3115 26.5569 92.5801 26.5569 86.7772C26.5569 80.9742 36.0114 76.24 47.6284 76.24ZM47.6284 91.1885C52.4962 91.1885 56.4567 89.2097 56.4567 86.7772C56.4567 84.3446 52.4962 82.363 47.6284 82.363C42.7606 82.363 38.8029 84.3446 38.8029 86.7772C38.8029 89.2097 42.7606 91.1885 47.6284 91.1885Z" fill="url(#paint0_linear_2511_18549)"/>
<path d="M34.3554 94.9574V94.9541C29.6073 93.0198 26.5625 90.0724 26.5625 86.7771V95.8653C26.5625 99.1587 29.5982 102.105 34.3471 104.036V104.04C35.0577 104.327 35.7999 104.591 36.5736 104.83C37.1767 105.017 37.8001 105.189 38.4439 105.345C39.0173 105.484 39.6017 105.612 40.2001 105.723V105.726C40.754 105.829 41.3218 105.924 41.8979 106.004C42.4508 106.082 43.013 106.149 43.5845 106.205V97.1166C43.0167 97.061 42.4545 96.9942 41.8979 96.9162V96.9135C41.3134 96.8355 40.7568 96.7409 40.2001 96.6351C39.6017 96.5238 39.0173 96.3958 38.4439 96.2594C37.801 96.1008 37.1776 95.931 36.5736 95.7417C35.7947 95.5116 35.0571 95.2347 34.3554 94.9574Z" fill="url(#paint1_linear_2511_18549)"/>
<path d="M68.7 95.9878V86.8995C68.6942 87.2033 68.6616 87.506 68.6026 87.8041C68.546 88.0976 68.4659 88.3861 68.3632 88.6669V88.6752C68.2564 88.9619 68.13 89.2409 67.9847 89.5102V89.5213C67.8242 89.8105 67.6457 90.0894 67.4503 90.3563C67.2285 90.6622 66.9867 90.9532 66.7267 91.2274V91.2334C66.4195 91.5612 66.0923 91.8696 65.747 92.157V101.245C66.0938 100.955 66.4227 100.645 66.7323 100.316V100.31C66.9895 100.037 67.2294 99.7476 67.4503 99.4445V99.4334C67.6457 99.1665 67.8242 98.8876 67.9847 98.5984V98.5789C68.13 98.3097 68.2564 98.0307 68.3632 97.744V97.7551C68.4656 97.4742 68.5456 97.1857 68.6026 96.8923C68.6614 96.5942 68.694 96.2915 68.7 95.9878Z" fill="url(#paint2_linear_2511_18549)"/>
<path d="M65.7415 101.245V92.157C65.2796 92.5432 64.7934 92.8992 64.2859 93.223C63.363 93.8115 62.393 94.3226 61.3858 94.7509V94.762C60.0874 95.3178 58.7485 95.7737 57.3808 96.1258C56.1218 96.4492 54.8461 96.7038 53.5594 96.8884V96.894C52.7375 97.0109 51.9025 97.1037 51.0546 97.1723C50.3845 97.2275 49.6953 97.2671 49.0006 97.292V97.2892C48.5469 97.3087 48.0905 97.3087 47.6285 97.3087H47.0885V97.3004C46.4883 97.292 45.8909 97.2726 45.3017 97.2393L45.2989 97.2391V97.2473C44.721 97.2167 44.143 97.1722 43.5873 97.1166V106.196C44.1486 106.252 44.721 106.297 45.2989 106.327V106.336C45.889 106.369 46.4874 106.397 47.0885 106.397V106.394H47.6285C48.0905 106.394 48.5469 106.386 49.0006 106.372V106.377C49.6992 106.355 50.3894 106.316 51.0657 106.261V106.254C51.9218 106.19 52.7503 106.093 53.5594 105.977C54.8463 105.788 56.122 105.53 57.3808 105.203C58.7481 104.85 60.0869 104.394 61.3858 103.839C62.393 103.411 63.363 102.9 64.2859 102.311C64.7934 101.987 65.2796 101.631 65.7415 101.245Z" fill="url(#paint3_linear_2511_18549)"/>
<path d="M64.8175 62.3656V73.4511C64.8175 68.8171 57.2723 65.0431 47.9987 65.0431C38.7251 65.0431 31.1854 68.8171 31.1854 73.4511V62.3656C31.1854 57.7288 38.7279 53.9548 47.9987 53.9548C57.2695 53.9548 64.8175 57.7177 64.8175 62.3656Z" fill="#069EB3"/>
<path d="M47.9986 47.8318C64.0242 47.8318 77.0634 54.3528 77.0634 62.3656C77.0634 70.3784 64.0242 76.8966 47.9986 76.8966C31.973 76.8966 18.9365 70.3756 18.9365 62.3656C18.9365 54.3556 31.9758 47.8318 47.9986 47.8318ZM47.9986 70.7736C57.2722 70.7736 64.8174 66.9996 64.8174 62.3656C64.8174 57.7316 57.2694 53.9548 47.9986 53.9548C38.7278 53.9548 31.1853 57.7177 31.1853 62.3656C31.1853 67.0135 38.7278 70.7736 47.9986 70.7736Z" fill="url(#paint4_linear_2511_18549)"/>
<path d="M77.0634 62.3657V71.4512C77.0634 79.464 64.0242 85.9822 47.9986 85.9822C31.973 85.9822 18.9365 79.464 18.9365 71.4512V62.3657C18.9365 70.3757 31.9758 76.8968 47.9986 76.8968C64.0214 76.8968 77.0634 70.3757 77.0634 62.3657Z" fill="url(#paint5_linear_2511_18549)"/>
<path d="M70.754 38.7641V49.8524C70.754 43.5763 60.5481 38.4719 48.0015 38.4719C35.4548 38.4719 25.2461 43.5763 25.2461 49.8524V38.7641C25.2461 32.4908 35.4548 27.3865 48.0015 27.3865C60.5481 27.3865 70.754 32.4908 70.754 38.7641Z" fill="#069EB3"/>
<path d="M48.0014 21.2581C67.3 21.2581 83 29.1094 83 38.7588C83 48.4081 67.2889 56.265 48.0014 56.265C28.7139 56.265 13 48.4136 13 38.7643C13 29.115 28.7 21.2581 48.0014 21.2581ZM48.0014 50.1364C60.548 50.1364 70.754 45.0321 70.754 38.7588C70.754 32.4854 60.548 27.3811 48.0014 27.3811C35.4548 27.3811 25.246 32.4854 25.246 38.7588C25.246 45.0321 35.4548 50.1364 48.0014 50.1364Z" fill="url(#paint6_linear_2511_18549)"/>
<path d="M83 38.7642V47.8524C83 57.4989 67.3 65.3503 48.0014 65.3503C28.7028 65.3503 13 57.4989 13 47.8524V38.7642C13 48.4135 28.7 56.2649 48.0014 56.2649C67.3028 56.2649 83 48.4135 83 38.7642Z" fill="url(#paint7_linear_2511_18549)"/>
<path d="M57.1414 0L38.6193 0.00556544L41.4637 38.973L42.2346 49.7245C44.226 49.996 46.2337 50.1308 48.2435 50.128C49.8997 50.1271 51.5545 50.0342 53.2004 49.8497L57.1414 0Z" fill="url(#paint8_linear_2511_18549)"/>
<path d="M51.5472 70.5817L51.8255 65.2419C50.6491 65.3031 49.4496 65.3319 48.2268 65.3282C46.6237 65.3282 45.0429 65.2725 43.4954 65.1667L43.7348 70.5C46.3243 70.8546 48.9467 70.8439 51.5472 70.5817Z" fill="url(#paint9_linear_2511_18549)"/>
<path d="M47.5 122L48.572 106.375C48.341 106.38 48.1072 106.383 47.865 106.361H46.5152L47.5 122Z" fill="url(#paint10_linear_2511_18549)"/>
<path d="M50.189 85.9321L49.9413 91.0493C48.3799 91.2348 46.8007 91.2355 45.246 91L45.0206 85.8764C46.0782 85.9349 47.1553 85.9655 48.2435 85.9655C48.8985 85.9655 49.547 85.9544 50.189 85.9321Z" fill="url(#paint11_linear_2511_18549)"/>
<defs>
<linearGradient id="paint0_linear_2511_18549" x1="47.6298" y1="76.24" x2="47.6298" y2="97.3115" gradientUnits="userSpaceOnUse">
<stop stop-color="#50F0F3"/>
<stop offset="1" stop-color="#0FBCEA"/>
</linearGradient>
<linearGradient id="paint1_linear_2511_18549" x1="30.459" y1="86.7771" x2="30.459" y2="106.04" gradientUnits="userSpaceOnUse">
<stop stop-color="#1F49DE"/>
<stop offset="1" stop-color="#0276E1"/>
</linearGradient>
<linearGradient id="paint2_linear_2511_18549" x1="30.459" y1="86.7771" x2="30.459" y2="106.04" gradientUnits="userSpaceOnUse">
<stop stop-color="#1F49DE"/>
<stop offset="1" stop-color="#0276E1"/>
</linearGradient>
<linearGradient id="paint3_linear_2511_18549" x1="30.459" y1="86.7771" x2="30.459" y2="106.04" gradientUnits="userSpaceOnUse">
<stop stop-color="#1F49DE"/>
<stop offset="1" stop-color="#0276E1"/>
</linearGradient>
<linearGradient id="paint4_linear_2511_18549" x1="48" y1="47.8318" x2="48" y2="76.8966" gradientUnits="userSpaceOnUse">
<stop stop-color="#50F0F3"/>
<stop offset="1" stop-color="#0FBCEA"/>
</linearGradient>
<linearGradient id="paint5_linear_2511_18549" x1="48" y1="62.3657" x2="48" y2="87.9822" gradientUnits="userSpaceOnUse">
<stop stop-color="#1F49DE"/>
<stop offset="1" stop-color="#0276E1"/>
</linearGradient>
<linearGradient id="paint6_linear_2511_18549" x1="48" y1="21.2581" x2="48" y2="56.265" gradientUnits="userSpaceOnUse">
<stop stop-color="#50F0F3"/>
<stop offset="1" stop-color="#0FBCEA"/>
</linearGradient>
<linearGradient id="paint7_linear_2511_18549" x1="48" y1="38.7642" x2="48" y2="67.3503" gradientUnits="userSpaceOnUse">
<stop stop-color="#1F49DE"/>
<stop offset="1" stop-color="#0276E1"/>
</linearGradient>
<linearGradient id="paint8_linear_2511_18549" x1="48" y1="1.0609e-09" x2="47.5" y2="121.5" gradientUnits="userSpaceOnUse">
<stop stop-color="#61FFD9" stop-opacity="0"/>
<stop offset="0.537508" stop-color="#A7FFEA"/>
<stop offset="0.950667" stop-color="#CEFFF3" stop-opacity="0"/>
</linearGradient>
<linearGradient id="paint9_linear_2511_18549" x1="48" y1="1.0609e-09" x2="47.5" y2="121.5" gradientUnits="userSpaceOnUse">
<stop stop-color="#61FFD9" stop-opacity="0"/>
<stop offset="0.537508" stop-color="#A7FFEA"/>
<stop offset="0.950667" stop-color="#CEFFF3" stop-opacity="0"/>
</linearGradient>
<linearGradient id="paint10_linear_2511_18549" x1="48" y1="1.0609e-09" x2="47.5" y2="121.5" gradientUnits="userSpaceOnUse">
<stop stop-color="#61FFD9" stop-opacity="0"/>
<stop offset="0.537508" stop-color="#A7FFEA"/>
<stop offset="0.950667" stop-color="#CEFFF3" stop-opacity="0"/>
</linearGradient>
<linearGradient id="paint11_linear_2511_18549" x1="48" y1="1.0609e-09" x2="47.5" y2="121.5" gradientUnits="userSpaceOnUse">
<stop stop-color="#61FFD9" stop-opacity="0"/>
<stop offset="0.537508" stop-color="#A7FFEA"/>
<stop offset="0.950667" stop-color="#CEFFF3" stop-opacity="0"/>
</linearGradient>
</defs>
</svg>
