<svg width="592" height="268" viewBox="0 0 592 268" fill="none" xmlns="http://www.w3.org/2000/svg">
<path d="M415.5 206.502C415.5 216.682 398.39 225.574 372.958 230.329C360.468 232.661 345.966 234 330.497 234C315.028 234 300.523 232.661 288.039 230.329C262.61 225.574 245.5 216.682 245.5 206.502C245.5 191.311 283.555 179 330.497 179C377.439 179 415.5 191.311 415.5 206.502Z" stroke="#A389FF" stroke-width="2" stroke-miterlimit="10"/>
<path d="M245.5 206.758L1.57441e-06 206.758" stroke="url(#paint0_linear_2667_21242)" stroke-width="2" stroke-miterlimit="10"/>
<path d="M281 185L205.5 142.5" stroke="url(#paint1_linear_2667_21242)" stroke-width="2" stroke-miterlimit="10"/>
<path d="M380.5 185L437.5 153" stroke="url(#paint2_linear_2667_21242)" stroke-width="2" stroke-miterlimit="10"/>
<path d="M329.71 186.367L329.71 149" stroke="url(#paint3_linear_2667_21242)" stroke-width="2" stroke-miterlimit="10"/>
<path d="M416 207H558" stroke="url(#paint4_linear_2667_21242)" stroke-width="2" stroke-miterlimit="10"/>
<path d="M389.655 174.686C389.655 180.938 377.808 186.399 360.191 189.318C351.54 190.75 341.497 191.571 330.783 191.571C320.07 191.571 310.03 190.75 301.376 189.318C283.764 186.399 271.915 180.944 271.915 174.686C271.915 165.36 298.271 157.802 330.783 157.802C363.295 157.802 389.655 165.36 389.655 174.686Z" fill="url(#paint5_linear_2667_21242)"/>
<path d="M387.119 174.687C387.119 180.319 375.781 185.238 358.926 187.88C350.646 189.172 341.037 189.91 330.783 189.91C320.53 189.91 310.924 189.172 302.644 187.88C285.789 185.252 274.451 180.341 274.451 174.687C274.451 166.286 299.672 159.477 330.783 159.477C361.895 159.477 387.119 166.286 387.119 174.687Z" fill="url(#paint6_linear_2667_21242)"/>
<path d="M375.748 174.687C375.748 175.035 375.687 175.382 375.568 175.71C373.522 169.878 354.254 165.306 330.783 165.306C307.313 165.306 288.056 169.878 286.002 175.71C285.883 175.382 285.822 175.035 285.821 174.687C285.821 168.37 305.951 163.251 330.786 163.251C355.622 163.251 375.748 168.37 375.748 174.687Z" fill="#4B17B3"/>
<path d="M375.562 175.71C374.24 179.512 365.6 182.78 353.239 184.595C338.334 186.631 323.222 186.631 308.317 184.595C295.961 182.78 287.316 179.512 285.996 175.71C288.043 169.878 307.31 165.306 330.778 165.306C354.246 165.306 373.522 169.878 375.562 175.71Z" fill="#2F1F43"/>
<path d="M389.655 174.687V203.946C389.655 213.27 363.298 220.831 330.783 220.831C298.269 220.831 271.915 213.27 271.915 203.946V174.687C271.915 180.939 283.762 186.399 301.376 189.318C310.03 190.75 320.073 191.571 330.783 191.571C341.494 191.571 351.54 190.75 360.191 189.318C377.805 186.399 389.655 180.944 389.655 174.687Z" fill="url(#paint7_linear_2667_21242)"/>
<g style="mix-blend-mode:hard-light">
<path d="M404.102 33C404.102 33 375.689 175.373 375.562 175.71C374.24 179.512 365.6 182.78 353.239 184.595C338.334 186.631 323.222 186.631 308.317 184.595C295.961 182.78 287.316 179.512 285.996 175.71C285.875 175.373 257.018 33 257.018 33H404.102Z" fill="url(#paint8_linear_2667_21242)"/>
</g>
<path d="M344.302 71.7758L339.803 69.8668C337.481 68.8908 335.002 68.3391 332.485 68.2378C332.278 68.219 332.068 68.219 331.86 68.219H330.595L330.326 68.2325L329.96 68.2513L329.671 68.2755L329.324 68.3025L329.055 68.3348L328.702 68.3725L328.411 68.4129L328.069 68.4586L327.773 68.5071L327.437 68.5636L327.089 68.6309L326.793 68.6875L326.446 68.7629L326.15 68.8302L325.794 68.9164L325.506 68.989L325.135 69.0914L324.865 69.1641L324.464 69.2879L324.224 69.3606L323.778 69.5087L323.586 69.5733L323.121 69.7403L322.948 69.8049C322.738 69.883 322.526 69.9664 322.315 70.0526C318.857 71.4803 315.694 73.5392 312.989 76.1242C310.129 78.8513 307.744 82.0362 305.932 85.548C304.087 89.0975 302.831 92.9231 302.213 96.8753C301.606 100.691 301.67 104.584 302.402 108.378C303.077 111.925 304.459 115.301 306.467 118.302L310.964 120.211C308.957 117.21 307.575 113.836 306.898 110.289C306.166 106.495 306.102 102.603 306.71 98.787C307.327 94.8346 308.583 91.0088 310.428 87.4596C312.242 83.9491 314.627 80.7645 317.485 78.0359C320.188 75.4435 323.35 73.3772 326.809 71.9427L327.445 71.695L327.617 71.6331C327.654 71.6195 327.691 71.6059 327.728 71.5921C327.845 71.5485 327.964 71.5044 328.083 71.4635L328.271 71.4015L328.718 71.2508L328.958 71.1781C328.992 71.1677 329.026 71.1572 329.06 71.1466C329.159 71.116 329.259 71.0849 329.359 71.0569L329.628 70.9815L330 70.8792L330.288 70.8092C330.319 70.8012 330.351 70.793 330.382 70.7848C330.468 70.7625 330.554 70.74 330.641 70.7203L330.937 70.6557L331.284 70.5776L331.58 70.5211L331.928 70.4565L332.264 70.3999L332.56 70.3515L332.902 70.303L333.193 70.2653L333.546 70.2249L333.815 70.1953L334.163 70.1657L334.448 70.1441L334.814 70.1226L335.083 70.1091H336.357C336.451 70.1104 336.546 70.1144 336.641 70.1184C336.754 70.1232 336.868 70.128 336.982 70.128C339.501 70.2341 341.981 70.7922 344.302 71.7758Z" fill="url(#paint9_linear_2667_21242)"/>
<path d="M354.022 71.0866L358.519 72.9983C358.511 72.9956 358.502 72.9938 358.493 72.9929C358.475 72.9909 358.456 72.9926 358.438 72.9983C358.405 73.0063 358.373 73.022 358.347 73.044L358.335 73.0389L355.557 75.3491C355.528 75.3722 355.505 75.4016 355.49 75.4351C355.474 75.4697 355.466 75.5073 355.465 75.5454L355.514 79.1373C355.513 79.1728 355.522 79.2079 355.54 79.2385L355.549 79.2422C355.564 79.2707 355.587 79.2935 355.616 79.3069L351.117 77.3979C351.09 77.3821 351.067 77.3592 351.051 77.3316L351.042 77.3279C351.025 77.2976 351.017 77.2637 351.017 77.2294L351.015 77.2283L350.966 73.6338L355.206 75.4354L350.969 73.6338C350.969 73.5965 350.977 73.5598 350.993 73.5261C351.007 73.4908 351.03 73.4601 351.061 73.4373L353.845 71.1218L353.857 71.127C353.882 71.1081 353.911 71.0952 353.942 71.0893C353.968 71.0803 353.996 71.0794 354.022 71.0866Z" fill="url(#paint10_linear_2667_21242)"/>
<path d="M341.037 126.191L336.537 124.282C338.042 108.849 342.958 93.9433 350.929 80.6423L355.425 82.5513C347.456 95.8528 342.541 110.759 341.037 126.191Z" fill="url(#paint11_linear_2667_21242)"/>
<path fill-rule="evenodd" clip-rule="evenodd" d="M353.772 79.6756C351.889 76.8638 349.383 74.5243 346.448 72.8393C343.55 71.2002 340.303 70.2763 336.976 70.1441C336.769 70.1252 336.559 70.1252 336.352 70.1252H335.719H335.493H335.089L334.82 70.1387L334.453 70.1602L334.168 70.1818L333.821 70.2114L333.551 70.241L333.199 70.2814L332.908 70.3191L332.566 70.3676L332.27 70.416L331.933 70.4726L331.586 70.5372L331.29 70.5937L330.942 70.6718L330.646 70.7364C330.56 70.7561 330.473 70.7786 330.388 70.8009C330.356 70.8091 330.325 70.8173 330.293 70.8253L330.005 70.8953L329.634 70.9976L329.365 71.073C329.282 71.0967 329.198 71.1225 329.113 71.1485C329.063 71.1638 329.013 71.1792 328.963 71.1942L328.724 71.2669L328.277 71.4177L328.088 71.4796C327.97 71.5205 327.851 71.5646 327.733 71.6082C327.696 71.622 327.659 71.6357 327.622 71.6492L327.45 71.7111L326.815 71.9588C323.355 73.3933 320.193 75.4596 317.491 78.052C314.632 80.7806 312.248 83.9653 310.434 87.4757C308.588 91.0249 307.332 94.8507 306.715 98.8031C306.108 102.619 306.172 106.512 306.904 110.305C307.581 113.847 308.963 117.216 310.967 120.214C320.197 118.332 329.133 113.504 336.715 106.331C344.297 99.1585 350.218 89.9071 353.772 79.6756ZM358.524 73.0146C358.553 73.027 358.577 73.0488 358.591 73.0765C358.608 73.107 358.618 73.1413 358.618 73.1762L358.667 76.7707C358.667 76.8082 358.659 76.8454 358.644 76.8797C358.628 76.914 358.606 76.9447 358.578 76.9699L355.789 79.2828C355.763 79.3052 355.733 79.321 355.7 79.3285C355.669 79.3338 355.637 79.329 355.608 79.3151C355.579 79.3017 355.555 79.2789 355.541 79.2505C355.522 79.2196 355.513 79.1841 355.514 79.1481L355.465 75.5563C355.466 75.5182 355.474 75.4806 355.49 75.4459C355.505 75.4124 355.528 75.3829 355.557 75.3598L358.341 73.0442C358.368 73.0222 358.399 73.0065 358.433 72.9985C358.464 72.9928 358.497 72.9985 358.524 73.0146ZM353.681 113.176C350.581 118.744 346.16 123.294 341.026 126.191C342.531 110.759 347.445 95.8528 355.415 82.5513C357.307 86.4831 358.303 90.786 358.33 95.1495C358.371 101.46 356.768 107.672 353.681 113.176Z" fill="url(#paint12_linear_2667_21242)"/>
<circle cx="330.5" cy="97.0002" r="49" fill="url(#paint13_linear_2667_21242)"/>
<g style="mix-blend-mode:screen">
<circle cx="330.5" cy="97" r="43.2744" transform="rotate(15 330.5 97)" fill="url(#paint14_linear_2667_21242)"/>
</g>
<g style="mix-blend-mode:hard-light">
<path d="M391.7 155C391.7 156.923 390.257 158.95 387.156 160.944C384.09 162.915 379.602 164.721 373.984 166.249C362.76 169.302 347.209 171.2 330 171.2C312.791 171.2 297.24 169.302 286.016 166.249C280.398 164.721 275.909 162.915 272.844 160.944C269.743 158.95 268.3 156.923 268.3 155C268.3 153.077 269.743 151.05 272.844 149.056C275.909 147.085 280.398 145.279 286.016 143.751C297.24 140.698 312.791 138.8 330 138.8C347.209 138.8 362.76 140.698 373.984 143.751C379.602 145.279 384.09 147.085 387.156 149.056C390.257 151.05 391.7 153.077 391.7 155Z" stroke="url(#paint15_linear_2667_21242)" stroke-width="1.6"/>
</g>
<g opacity="0.6">
<path d="M423.5 158.737H407.5V165.474C407.5 166.409 409.11 167.226 411.504 167.663C412.679 167.877 414.044 168 415.5 168C416.956 168 418.321 167.877 419.496 167.663C421.89 167.226 423.5 166.409 423.5 165.474V158.737Z" fill="url(#paint16_linear_2667_21242)"/>
<path d="M407.5 158.737C407.5 159.672 409.11 160.489 411.504 160.926C412.679 161.14 414.044 161.263 415.5 161.263C416.956 161.263 418.321 161.14 419.496 160.926C421.89 160.489 423.5 159.672 423.5 158.737C423.5 157.341 419.918 156.21 415.5 156.21C411.082 156.21 407.5 157.341 407.5 158.737Z" fill="url(#paint17_linear_2667_21242)"/>
<path opacity="0.6" d="M423.5 24H408.763L412.553 158.737C412.553 159.049 413.146 159.321 414.028 159.467C414.461 159.538 414.964 159.579 415.5 159.579C416.037 159.579 416.539 159.538 416.972 159.467C417.854 159.321 418.447 159.049 418.447 158.737L423.5 24Z" fill="url(#paint18_linear_2667_21242)"/>
<g style="mix-blend-mode:hard-light">
<path d="M423.1 150.316C423.1 150.48 422.994 150.708 422.632 150.979C422.277 151.244 421.738 151.499 421.036 151.721C419.637 152.163 417.68 152.442 415.5 152.442C413.32 152.442 411.363 152.163 409.964 151.721C409.262 151.499 408.723 151.244 408.368 150.979C408.006 150.708 407.9 150.48 407.9 150.316C407.9 150.152 408.006 149.923 408.368 149.653C408.723 149.388 409.262 149.133 409.964 148.911C411.363 148.469 413.32 148.19 415.5 148.19C417.68 148.19 419.637 148.469 421.036 148.911C421.738 149.133 422.277 149.388 422.632 149.653C422.994 149.923 423.1 150.152 423.1 150.316Z" stroke="url(#paint19_linear_2667_21242)" stroke-width="0.8"/>
</g>
</g>
<g style="mix-blend-mode:color-dodge" filter="url(#filter0_f_2667_21242)">
<circle r="9.77931" transform="matrix(-1 0 0 1 453.682 65.8328)" fill="url(#paint20_radial_2667_21242)" fill-opacity="0.85"/>
</g>
<path d="M453.653 70.8081L451.109 65.7193L453.653 60.6306L456.198 65.7193L453.653 70.8081Z" fill="url(#paint21_linear_2667_21242)"/>
<g style="mix-blend-mode:screen">
<circle cx="454" cy="65" r="13.8804" transform="rotate(15 454 65)" fill="url(#paint22_linear_2667_21242)"/>
</g>
<g opacity="0.4">
<g style="mix-blend-mode:color-dodge" filter="url(#filter1_f_2667_21242)">
<circle r="9.5" transform="matrix(-1 0 0 1 231.5 103.5)" fill="url(#paint23_radial_2667_21242)" fill-opacity="0.85"/>
</g>
<path d="M231.472 108.333L229 103.39L231.472 98.4464L233.943 103.39L231.472 108.333Z" fill="url(#paint24_linear_2667_21242)"/>
<circle cx="231.5" cy="103.5" r="12.5" fill="url(#paint25_linear_2667_21242)"/>
</g>
<g style="mix-blend-mode:color-dodge" filter="url(#filter2_f_2667_21242)">
<circle r="37.8871" transform="matrix(-1 0 0 1 119.293 115.901)" fill="url(#paint26_radial_2667_21242)" fill-opacity="0.35"/>
</g>
<circle opacity="0.4" cx="122.5" cy="115.5" r="43.5" fill="url(#paint27_linear_2667_21242)"/>
<circle opacity="0.4" cx="122.901" cy="115.901" r="37.8871" fill="url(#paint28_linear_2667_21242)"/>
<path d="M128.782 113.729L128.834 113.65L128.873 113.685C128.933 113.739 128.994 113.793 129.052 113.85L129.223 114.017L129.384 114.184C129.437 114.24 129.489 114.297 129.538 114.353L129.682 114.524C129.728 114.581 129.773 114.637 129.816 114.693C129.858 114.75 129.901 114.806 129.94 114.862L130.055 115.031C130.131 115.144 130.197 115.255 130.249 115.366C130.278 115.42 130.307 115.474 130.335 115.529C130.362 115.583 130.387 115.636 130.41 115.69C130.434 115.742 130.455 115.795 130.475 115.848C130.494 115.9 130.511 115.953 130.529 116.003C130.545 116.054 130.558 116.104 130.572 116.155L130.292 115.039L130.156 114.487L129.975 113.659L129.921 113.438C129.822 113.049 129.724 112.655 129.625 112.256L129.549 111.951L129.343 111.133L129.289 110.909L129.116 110.217L128.898 109.343L128.679 108.462L128.601 108.153C128.335 107.088 128.07 106.024 127.804 104.96L127.789 104.904L127.734 104.684C127.228 102.65 126.72 100.616 126.211 98.5817L126.197 98.5253V98.5117C126.183 98.4573 126.168 98.4048 126.154 98.3543L126.137 98.2882V98.263C126.137 98.2377 126.121 98.2105 126.115 98.1852L126.038 97.9248V97.8956V97.8782C126.038 97.849 126.02 97.8218 126.012 97.7946C125.995 97.7382 125.977 97.6858 125.962 97.6333V97.6236C125.797 97.1183 125.663 96.7917 125.641 96.7432C125.602 96.644 125.558 96.5391 125.511 96.4322L125.552 96.5313C125.528 96.473 125.505 96.4167 125.48 96.3622V96.372L125.466 96.3428V96.3234C125.4 96.1679 125.332 96.0124 125.272 95.8822C125.142 95.6023 124.998 95.3264 124.854 95.0737V95.062L124.8 94.9668C124.745 94.8677 124.689 94.7725 124.632 94.6772C124.576 94.582 124.541 94.5256 124.487 94.4421C124.393 94.2905 124.292 94.135 124.193 93.9795C123.76 93.2824 123.249 92.6364 122.671 92.0535C122.297 91.6549 121.901 91.2779 121.484 90.9244L121.321 90.7864L121.278 90.7514C121.216 90.6989 121.15 90.6464 121.084 90.592L121.043 90.5571L121.115 90.6134L121.004 90.5259C120.074 89.7456 119.033 89.1095 117.914 88.6388C117.747 88.563 117.576 88.4911 117.41 88.427L117.327 88.3959H117.35L117.263 88.3629L117.226 88.3493L117.031 88.2773H117.057L117.031 88.2676C116.837 88.1957 116.623 88.1238 116.448 88.0733H116.431H116.41H116.427C116.242 88.0189 116.021 87.9625 115.819 87.91L116.237 88.0169L115.69 87.877L116.005 87.9547L115.661 87.8692L115.776 87.8964L115.642 87.8653H115.611L115.492 87.8439L115.354 87.8167L115.549 87.8537L115.327 87.8109L115.23 87.7915H115.185L115.045 87.7662L114.923 87.7429H114.96H114.942H114.903H114.923L114.872 87.7332H114.898H114.845H114.868H114.828C114.618 87.6943 114.357 87.6671 114.112 87.6476H114.167H114.073H113.99H113.895H113.963H113.86H113.85H113.77H113.757C113.656 87.6476 113.539 87.6476 113.422 87.636H113.393H113.199H112.892H112.764H112.808H112.563H112.606C112.346 87.6433 112.086 87.6653 111.829 87.7021H111.765H111.722C111.584 87.7196 111.425 87.7468 111.273 87.7759H111.259L111.51 87.7293L111.184 87.7876L111.294 87.7662L111.127 87.7973H111.123H111.147H111.131H111.112H111.123L111.075 87.807H111.092L111.034 87.8187C110.681 87.8851 110.333 87.9774 109.994 88.0947L109.879 88.1335L109.839 88.1491H109.821C109.687 88.1957 109.557 88.2462 109.432 88.2987H109.452L109.277 88.3687L109.236 88.3862C109.024 88.4756 108.816 88.5805 108.641 88.668L108.601 88.6913L108.632 88.6719L108.55 88.7185C108.434 88.7846 108.311 88.8546 108.185 88.9304L108.068 88.9984L108.224 88.8993L107.975 89.0508L107.903 89.1033L107.709 89.2277H107.722L107.695 89.2452C107.588 89.3171 107.466 89.4104 107.347 89.5017L107.304 89.5328L107.285 89.5503L107.143 89.6592L106.754 89.9721C106.675 90.0381 106.593 90.1042 106.515 90.1664L106.471 90.2033L106.434 90.2383L106.391 90.2791L106.358 90.3083L106.344 90.3199L106.321 90.3433L106.224 90.4366L105.981 90.6698C105.895 90.7495 105.786 90.8641 105.717 90.9496C105.594 91.0857 105.46 91.2489 105.328 91.42C105.31 91.4394 105.291 91.4627 105.275 91.4841L105.213 91.5696C105.089 91.7348 104.97 91.9019 104.873 92.0496C104.813 92.141 104.747 92.244 104.679 92.3548L104.661 92.382C104.615 92.4597 104.57 92.5375 104.525 92.6152L104.477 92.7027L104.444 92.7629C104.167 93.2718 103.941 93.8062 103.767 94.3585C103.744 94.4343 103.721 94.5101 103.701 94.5762C103.605 94.8865 103.527 95.2018 103.466 95.5207C103.427 95.752 103.367 96.0571 103.34 96.2981C103.307 96.5819 103.264 96.9647 103.26 97.2504C103.26 97.3573 103.26 97.4778 103.26 97.6022V97.643C103.26 97.7946 103.26 97.9481 103.26 98.0783C103.26 98.3213 103.289 98.6264 103.312 98.8888V98.9218V98.9607V99.0287C103.33 99.192 103.357 99.3727 103.386 99.5573C103.406 99.6798 103.423 99.8003 103.439 99.9072C103.495 100.173 103.573 100.527 103.633 100.793L103.798 101.454L103.993 102.222C104.135 102.785 104.274 103.347 104.414 103.911L104.463 104.105L104.519 104.331C104.62 104.728 104.72 105.128 104.819 105.53V105.553V105.576C104.959 106.131 105.097 106.686 105.235 107.242C105.289 107.456 105.361 107.743 105.413 107.957C105.417 107.971 105.424 107.984 105.433 107.996L105.442 108.006C105.448 108.012 105.456 108.017 105.464 108.019H105.481C105.491 108.021 105.501 108.021 105.511 108.019H105.855H105.926H106.138H106.352H106.476H106.9L107.495 108.008H107.664H107.883H108.105H108.325H108.542H108.76H108.976H109.19H109.401H109.609H109.815C110.142 108.019 110.464 107.921 110.729 107.73L111.117 107.415L111.158 107.38L111.197 107.341L111.22 107.318L111.242 107.294L111.261 107.269L111.279 107.246C111.416 107.032 111.404 106.86 111.404 106.615C111.404 106.369 111.349 106.169 111.349 106.169L111.273 105.868L111.079 105.1L111.03 104.906L110.944 104.57L110.911 104.437L109.623 98.8674C109.624 98.8577 109.624 98.8479 109.623 98.8382C109.515 98.3407 109.45 97.8349 109.429 97.3262C109.429 97.2835 109.429 97.2388 109.429 97.196C109.429 97.1532 109.429 97.0697 109.429 97.0016C109.429 96.9064 109.429 96.8073 109.44 96.7179C109.454 96.5546 109.473 96.3933 109.497 96.2379C109.52 96.0824 109.547 95.9677 109.58 95.8375C109.592 95.7909 109.605 95.7481 109.619 95.7015C109.648 95.6023 109.681 95.5071 109.716 95.4138C109.775 95.2642 109.839 95.1223 109.911 94.9862C109.934 94.9415 109.957 94.893 109.984 94.8483C110.035 94.7619 110.09 94.6782 110.15 94.5976L110.202 94.5256L110.346 94.3507L110.476 94.2108C110.492 94.1933 110.511 94.1778 110.529 94.1603C111.033 93.8497 111.607 93.6676 112.198 93.6297H112.371H112.484C112.618 93.6297 112.771 93.6394 112.896 93.6452H112.923L113.261 93.6861C113.331 93.6958 113.401 93.7074 113.471 93.723H113.5C114.444 93.9348 115.343 94.3132 116.155 94.8405C116.299 94.9338 116.481 95.0679 116.621 95.1651C116.857 95.3594 117.01 95.4663 117.103 95.5538C117.197 95.6412 117.387 95.8103 117.508 95.9191L117.896 96.3078C117.951 96.3642 118.003 96.4225 118.054 96.4789L118.277 96.7354L118.351 96.8248L118.693 97.264L118.783 97.3923C118.977 97.6683 119.171 98.0045 119.336 98.2688C119.426 98.4282 119.531 98.6458 119.614 98.8071L119.828 99.295C119.851 99.3513 119.873 99.4057 119.892 99.4602C120.001 99.7692 120.126 100.154 120.211 100.453C120.279 101.009 120.528 101.722 120.664 102.267L120.889 103.17L121.115 104.076L121.34 104.978L121.566 105.878L121.789 106.775L121.9 107.222L122.013 107.671L122.359 109.057L122.458 109.446L122.621 110.103C123.139 112.193 123.661 114.282 124.185 116.37L124.601 118.038C124.605 118.052 124.612 118.065 124.621 118.077L124.642 118.092H124.66C124.669 118.094 124.679 118.094 124.689 118.092H124.728H124.763L124.792 118.083L124.835 118.063L124.868 118.046C124.886 118.036 124.905 118.026 124.922 118.015L124.959 117.991C124.982 117.978 125.004 117.963 125.025 117.947L125.064 117.919L125.116 117.898L125.161 117.861L125.177 117.849L125.565 117.537L125.583 117.521L125.61 117.5L125.637 117.476L125.664 117.453L125.694 117.43L125.715 117.41L125.732 117.395L125.754 117.375L125.773 117.358L125.795 117.338L125.816 117.319L125.837 117.299L125.855 117.284L125.87 117.268L125.888 117.253L125.905 117.235V117.226L125.923 117.208L125.94 117.193L125.958 117.175L125.975 117.159L125.989 117.144L126.005 117.13L126.02 117.115L126.036 117.099L126.051 117.086L126.065 117.07L126.08 117.055L126.096 117.039L126.111 117.023L126.125 117.01L126.141 116.994L126.154 116.981L126.168 116.967L126.181 116.952L126.195 116.938L126.211 116.924L126.224 116.909L126.238 116.895L126.251 116.88L126.267 116.864L126.281 116.85L126.294 116.837L126.306 116.823L126.319 116.808L126.333 116.794L126.347 116.781L126.36 116.767L126.374 116.753L126.385 116.738L126.399 116.724L126.413 116.711L126.426 116.695L126.44 116.681L126.454 116.666L126.465 116.652L126.479 116.639L126.488 116.629L126.502 116.615L126.514 116.602L126.527 116.588L126.541 116.573L126.553 116.559L126.566 116.545L126.58 116.53L126.591 116.516L126.605 116.503L126.619 116.487L126.63 116.473L126.642 116.46L126.656 116.446L126.667 116.433L126.681 116.417L126.693 116.403L126.704 116.392L126.716 116.38L126.729 116.365L126.741 116.351L126.755 116.335L126.766 116.322L126.78 116.308L126.792 116.293L126.805 116.279L126.817 116.264L126.831 116.25L126.842 116.236L126.856 116.221L126.867 116.207L126.881 116.192L126.893 116.178L126.906 116.162L126.918 116.149V116.139L126.93 116.126L126.943 116.11L126.955 116.096L126.969 116.081L126.98 116.065L126.994 116.052L127.005 116.036L127.019 116.021L127.031 116.005L127.044 115.991L127.058 115.976L127.07 115.96L127.083 115.945L127.095 115.931L127.108 115.916L127.12 115.9L127.134 115.885L127.145 115.869L127.159 115.853L127.173 115.838L127.254 115.76L127.268 115.745L127.281 115.729L127.295 115.714L127.309 115.698L127.32 115.682L127.334 115.665L127.347 115.649L127.361 115.634L127.375 115.616L127.388 115.601L127.402 115.583L127.412 115.57L127.425 115.552L127.439 115.537L127.452 115.519L127.466 115.502L127.48 115.484L127.495 115.467L127.509 115.451L127.522 115.434L127.536 115.416L127.55 115.399L127.565 115.379L127.579 115.362L127.594 115.342L127.61 115.325L127.623 115.305L127.635 115.29L127.651 115.272L127.664 115.253L127.68 115.233L127.693 115.216L127.709 115.197L127.725 115.177L127.74 115.156L127.758 115.134L127.773 115.113L127.791 115.094L127.806 115.072L127.824 115.051L127.839 115.029L127.855 115.008L127.866 114.992L127.882 114.971L127.899 114.95L127.919 114.924L127.938 114.899L127.956 114.874L127.975 114.849C127.982 114.841 127.989 114.832 127.995 114.823C128.002 114.815 128.008 114.807 128.014 114.798L128.034 114.773L128.051 114.748L128.07 114.722L128.086 114.703L128.109 114.67L128.133 114.639L128.156 114.606L128.181 114.575L128.205 114.542L128.228 114.511L128.253 114.474L128.288 114.427L128.321 114.38L128.356 114.334C128.366 114.318 128.378 114.304 128.389 114.289C128.401 114.273 128.414 114.252 128.428 114.233L128.494 114.141L128.552 114.06L128.628 113.951L128.722 113.815C128.762 113.756 128.772 113.743 128.782 113.729ZM105.825 107.831H105.835L105.804 107.852L105.825 107.831ZM126.195 98.5292L126.209 98.5856L126.193 98.5292H126.195ZM125.583 96.6751L125.565 96.6343L125.511 96.5061C125.528 96.5508 125.546 96.5896 125.563 96.6324C125.563 96.6207 125.563 96.6091 125.55 96.5993L125.583 96.6751ZM107.987 89.0062L107.975 89.0159L107.915 89.0528L107.987 89.0062Z" fill="url(#paint29_linear_2667_21242)"/>
<g opacity="0.6" filter="url(#filter3_f_2667_21242)">
<path d="M110.018 108.062H105.563C105.563 108.062 106.898 104.908 108.767 104.908C110.569 104.908 111.27 106.31 111.27 106.31C111.59 107.351 110.569 107.912 110.018 108.062Z" fill="url(#paint30_linear_2667_21242)" fill-opacity="0.78"/>
</g>
<path d="M109.466 88.2444H109.446L109.569 88.1958L109.466 88.2444Z" fill="#CFE3F2"/>
<path d="M133.166 110.02C134.453 110.031 135.765 111.209 136.095 112.649L140.824 133.264C141.154 134.702 140.379 135.86 139.09 135.848L115.646 135.633C114.357 135.621 113.047 134.443 112.717 133.003L107.988 112.391C107.658 110.95 108.433 109.792 109.72 109.804L133.166 110.02Z" fill="url(#paint31_linear_2667_21242)"/>
<path opacity="0.48" d="M139.09 135.849L115.646 135.633C114.357 135.622 113.047 134.444 112.717 133.004L107.988 112.391C107.865 111.905 107.889 111.394 108.056 110.922C108.172 110.609 108.375 110.336 108.639 110.133L104.947 112.854C104.344 113.295 104.065 114.138 104.288 115.112L109.017 135.725C109.347 137.165 110.657 138.341 111.945 138.352L135.39 138.568C135.682 138.572 135.972 138.505 136.233 138.374C136.314 138.332 136.391 138.285 136.464 138.232L140.157 135.511C139.847 135.736 139.473 135.855 139.09 135.849Z" fill="url(#paint32_linear_2667_21242)"/>
<path d="M129.469 129.836H122.85L122.836 129.774C122.059 126.338 122.537 123.676 123.089 122.029C122.393 121.705 121.781 121.226 121.299 120.629C120.817 120.031 120.478 119.332 120.308 118.584C120.057 117.482 120.246 116.436 120.821 115.715C121.056 115.424 121.355 115.19 121.695 115.032C122.034 114.874 122.406 114.796 122.78 114.804C124.597 114.804 126.453 116.483 126.92 118.549C127.262 120.059 126.785 121.406 125.705 122.01C127.506 124.28 128.784 126.92 129.448 129.741L129.469 129.836ZM122.974 129.681H129.275C128.604 126.887 127.326 124.275 125.532 122.029L125.474 121.956L125.559 121.913C126.632 121.365 127.114 120.057 126.776 118.58C126.325 116.582 124.537 114.955 122.788 114.955C122.437 114.947 122.089 115.02 121.77 115.168C121.452 115.316 121.172 115.535 120.951 115.808C120.405 116.492 120.228 117.489 120.467 118.545C120.635 119.281 120.971 119.968 121.449 120.552C121.927 121.136 122.535 121.601 123.223 121.911L123.291 121.938L123.268 122.008C122.708 123.617 122.214 126.256 122.974 129.677V129.681Z" fill="url(#paint33_linear_2667_21242)"/>
<path opacity="0.5" d="M122.747 114.824C120.962 114.824 119.89 116.474 120.35 118.517C120.522 119.264 120.864 119.962 121.351 120.555C121.837 121.149 122.454 121.622 123.153 121.937C122.599 123.558 122.092 126.23 122.879 129.711H129.339C128.67 126.871 127.377 124.215 125.553 121.937C126.62 121.391 127.162 120.067 126.81 118.517C126.352 116.482 124.533 114.824 122.747 114.824Z" fill="url(#paint34_radial_2667_21242)"/>
<g style="mix-blend-mode:multiply" opacity="0.52">
<path d="M122.747 114.824C120.962 114.824 119.89 116.474 120.35 118.517C120.522 119.264 120.864 119.962 121.351 120.555C121.837 121.149 122.454 121.622 123.153 121.937C122.599 123.558 122.092 126.23 122.879 129.711H129.339C128.67 126.871 127.377 124.215 125.553 121.937C126.62 121.391 127.162 120.067 126.81 118.517C126.352 116.482 124.533 114.824 122.747 114.824Z" fill="url(#paint35_radial_2667_21242)"/>
</g>
<g style="mix-blend-mode:overlay">
<path d="M122.196 115.162C123.98 115.162 125.799 116.812 126.259 118.854C126.609 120.409 126.065 121.729 125 122.273C126.749 124.463 128.013 126.999 128.706 129.715H129.446C128.777 126.874 127.368 124.218 125.544 121.941C126.611 121.395 127.151 120.071 126.802 118.52C126.343 116.485 124.524 114.828 122.738 114.828C122.173 114.818 121.622 115.008 121.183 115.364C121.503 115.228 121.848 115.159 122.196 115.162Z" fill="url(#paint36_linear_2667_21242)"/>
</g>
<g style="mix-blend-mode:color-dodge" filter="url(#filter4_f_2667_21242)">
<circle r="26.5645" transform="matrix(-1 0 0 1 534.565 135.781)" fill="url(#paint37_radial_2667_21242)" fill-opacity="0.35"/>
</g>
<circle opacity="0.4" cx="536.313" cy="134" r="28" fill="url(#paint38_linear_2667_21242)"/>
<path d="M524.95 128.723L527.38 130.489L533.622 138.856L531.191 137.09L524.95 128.723Z" fill="#3F36B0"/>
<path fill-rule="evenodd" clip-rule="evenodd" d="M550.883 128.138L547.051 123L531.191 137.089L524.949 128.723L519.313 133.729L529.388 147.234L550.883 128.138Z" fill="url(#paint39_linear_2667_21242)"/>
<path d="M550.884 128.138L553.313 129.904L531.819 149L529.388 147.234L550.884 128.138Z" fill="url(#paint40_linear_2667_21242)"/>
<path d="M547.051 123L549.48 124.766L553.313 129.904L550.884 128.138L547.051 123Z" fill="#2E2687"/>
<path d="M194 199H175V207C175 208.111 176.912 209.081 179.755 209.6C181.151 209.854 182.771 210 184.5 210C186.229 210 187.85 209.854 189.246 209.6C192.088 209.081 194 208.111 194 207V199Z" fill="url(#paint41_linear_2667_21242)"/>
<path d="M175 199C175 200.111 176.912 201.081 179.755 201.6C181.151 201.854 182.771 202 184.5 202C186.229 202 187.85 201.854 189.246 201.6C192.088 201.081 194 200.111 194 199C194 197.343 189.747 196 184.5 196C179.254 196 175 197.343 175 199Z" fill="url(#paint42_linear_2667_21242)"/>
<path opacity="0.6" d="M194 39H176.5L181 199C181 199.37 181.705 199.694 182.752 199.867C183.266 199.951 183.863 200 184.5 200C185.137 200 185.734 199.951 186.248 199.867C187.295 199.694 188 199.37 188 199L194 39Z" fill="url(#paint43_linear_2667_21242)"/>
<g style="mix-blend-mode:hard-light">
<path d="M193.6 189C193.6 189.23 193.452 189.52 193.014 189.847C192.583 190.169 191.935 190.475 191.097 190.74C189.427 191.267 187.094 191.6 184.5 191.6C181.906 191.6 179.573 191.267 177.903 190.74C177.065 190.475 176.417 190.169 175.986 189.847C175.548 189.52 175.4 189.23 175.4 189C175.4 188.77 175.548 188.48 175.986 188.153C176.417 187.831 177.065 187.525 177.903 187.26C179.573 186.733 181.906 186.4 184.5 186.4C187.094 186.4 189.427 186.733 191.097 187.26C191.935 187.525 192.583 187.831 193.014 188.153C193.452 188.48 193.6 188.77 193.6 189Z" stroke="url(#paint44_linear_2667_21242)" stroke-width="0.8"/>
</g>
<path d="M491 199H472V207C472 208.111 473.912 209.081 476.755 209.6C478.151 209.854 479.771 210 481.5 210C483.229 210 484.85 209.854 486.246 209.6C489.088 209.081 491 208.111 491 207V199Z" fill="url(#paint45_linear_2667_21242)"/>
<path d="M472 199C472 200.111 473.912 201.081 476.755 201.6C478.151 201.854 479.771 202 481.5 202C483.229 202 484.85 201.854 486.246 201.6C489.088 201.081 491 200.111 491 199C491 197.343 486.747 196 481.5 196C476.254 196 472 197.343 472 199Z" fill="url(#paint46_linear_2667_21242)"/>
<path opacity="0.6" d="M491 39H473.5L478 199C478 199.37 478.705 199.694 479.752 199.867C480.266 199.951 480.863 200 481.5 200C482.137 200 482.734 199.951 483.248 199.867C484.295 199.694 485 199.37 485 199L491 39Z" fill="url(#paint47_linear_2667_21242)"/>
<g style="mix-blend-mode:hard-light">
<path d="M490.6 189C490.6 189.23 490.452 189.52 490.014 189.847C489.583 190.169 488.935 190.475 488.097 190.74C486.427 191.267 484.094 191.6 481.5 191.6C478.906 191.6 476.573 191.267 474.903 190.74C474.065 190.475 473.417 190.169 472.986 189.847C472.548 189.52 472.4 189.23 472.4 189C472.4 188.77 472.548 188.48 472.986 188.153C473.417 187.831 474.065 187.525 474.903 187.26C476.573 186.733 478.906 186.4 481.5 186.4C484.094 186.4 486.427 186.733 488.097 187.26C488.935 187.525 489.583 187.831 490.014 188.153C490.452 188.48 490.6 188.77 490.6 189Z" stroke="url(#paint48_linear_2667_21242)" stroke-width="0.8"/>
</g>
<g style="mix-blend-mode:color-dodge" filter="url(#filter5_f_2667_21242)">
<circle r="12.5199" transform="matrix(-1 0 0 1 37.649 148.875)" fill="url(#paint49_radial_2667_21242)" fill-opacity="0.85"/>
</g>
<circle cx="38" cy="148" r="19" fill="url(#paint50_linear_2667_21242)"/>
<path d="M37.6117 155.244L34.3542 148.73L37.6117 142.215L40.8691 148.73L37.6117 155.244Z" fill="url(#paint51_linear_2667_21242)"/>
<defs>
<filter id="filter0_f_2667_21242" x="431.903" y="44.0535" width="43.5586" height="43.5586" filterUnits="userSpaceOnUse" color-interpolation-filters="sRGB">
<feFlood flood-opacity="0" result="BackgroundImageFix"/>
<feBlend mode="normal" in="SourceGraphic" in2="BackgroundImageFix" result="shape"/>
<feGaussianBlur stdDeviation="6" result="effect1_foregroundBlur_2667_21242"/>
</filter>
<filter id="filter1_f_2667_21242" x="210" y="82" width="43" height="43" filterUnits="userSpaceOnUse" color-interpolation-filters="sRGB">
<feFlood flood-opacity="0" result="BackgroundImageFix"/>
<feBlend mode="normal" in="SourceGraphic" in2="BackgroundImageFix" result="shape"/>
<feGaussianBlur stdDeviation="6" result="effect1_foregroundBlur_2667_21242"/>
</filter>
<filter id="filter2_f_2667_21242" x="69.4056" y="66.0139" width="99.7742" height="99.7742" filterUnits="userSpaceOnUse" color-interpolation-filters="sRGB">
<feFlood flood-opacity="0" result="BackgroundImageFix"/>
<feBlend mode="normal" in="SourceGraphic" in2="BackgroundImageFix" result="shape"/>
<feGaussianBlur stdDeviation="6" result="effect1_foregroundBlur_2667_21242"/>
</filter>
<filter id="filter3_f_2667_21242" x="99.5155" y="98.8606" width="17.8628" height="15.2488" filterUnits="userSpaceOnUse" color-interpolation-filters="sRGB">
<feFlood flood-opacity="0" result="BackgroundImageFix"/>
<feBlend mode="normal" in="SourceGraphic" in2="BackgroundImageFix" result="shape"/>
<feGaussianBlur stdDeviation="3.02368" result="effect1_foregroundBlur_2667_21242"/>
</filter>
<filter id="filter4_f_2667_21242" x="496" y="97.2166" width="77.129" height="77.1292" filterUnits="userSpaceOnUse" color-interpolation-filters="sRGB">
<feFlood flood-opacity="0" result="BackgroundImageFix"/>
<feBlend mode="normal" in="SourceGraphic" in2="BackgroundImageFix" result="shape"/>
<feGaussianBlur stdDeviation="6" result="effect1_foregroundBlur_2667_21242"/>
</filter>
<filter id="filter5_f_2667_21242" x="13.1291" y="124.355" width="49.0398" height="49.0398" filterUnits="userSpaceOnUse" color-interpolation-filters="sRGB">
<feFlood flood-opacity="0" result="BackgroundImageFix"/>
<feBlend mode="normal" in="SourceGraphic" in2="BackgroundImageFix" result="shape"/>
<feGaussianBlur stdDeviation="6" result="effect1_foregroundBlur_2667_21242"/>
</filter>
<linearGradient id="paint0_linear_2667_21242" x1="245.5" y1="206.758" x2="4.0507e-06" y2="206.758" gradientUnits="userSpaceOnUse">
<stop stop-color="#A389FF"/>
<stop offset="0.341162" stop-color="#A389FF" stop-opacity="0.462457"/>
<stop offset="1" stop-color="#A389FF" stop-opacity="0"/>
</linearGradient>
<linearGradient id="paint1_linear_2667_21242" x1="279" y1="184" x2="210" y2="145" gradientUnits="userSpaceOnUse">
<stop stop-color="#A389FF"/>
<stop offset="0.329332" stop-color="#A389FF" stop-opacity="0.33"/>
<stop offset="0.773632" stop-color="#A389FF" stop-opacity="0.06"/>
<stop offset="0.987422" stop-color="#A389FF" stop-opacity="0"/>
</linearGradient>
<linearGradient id="paint2_linear_2667_21242" x1="382.5" y1="184" x2="434.5" y2="155" gradientUnits="userSpaceOnUse">
<stop stop-color="#A389FF"/>
<stop offset="0.307377" stop-color="#A389FF" stop-opacity="0.462457"/>
<stop offset="0.576439" stop-color="#A389FF" stop-opacity="0"/>
</linearGradient>
<linearGradient id="paint3_linear_2667_21242" x1="329.616" y1="184.133" x2="329.616" y2="151.5" gradientUnits="userSpaceOnUse">
<stop stop-color="#A389FF"/>
<stop offset="0.307377" stop-color="#A389FF" stop-opacity="0.462457"/>
<stop offset="0.898574" stop-color="#A389FF" stop-opacity="0"/>
</linearGradient>
<linearGradient id="paint4_linear_2667_21242" x1="416" y1="207" x2="557.816" y2="212.11" gradientUnits="userSpaceOnUse">
<stop stop-color="#A389FF"/>
<stop offset="0.537117" stop-color="#A389FF" stop-opacity="0.462457"/>
<stop offset="1" stop-color="#A389FF" stop-opacity="0"/>
</linearGradient>
<linearGradient id="paint5_linear_2667_21242" x1="330.785" y1="157.802" x2="330.785" y2="191.571" gradientUnits="userSpaceOnUse">
<stop stop-color="#423EFF"/>
<stop offset="1" stop-color="#94B7FF"/>
</linearGradient>
<linearGradient id="paint6_linear_2667_21242" x1="330.785" y1="159.477" x2="330.785" y2="189.91" gradientUnits="userSpaceOnUse">
<stop stop-color="#7435FF"/>
<stop offset="1" stop-color="#A791FF"/>
</linearGradient>
<linearGradient id="paint7_linear_2667_21242" x1="271.5" y1="190" x2="389.5" y2="191" gradientUnits="userSpaceOnUse">
<stop stop-color="#4557F1"/>
<stop offset="1" stop-color="#312ED8"/>
</linearGradient>
<linearGradient id="paint8_linear_2667_21242" x1="330.5" y1="186" x2="330.5" y2="33" gradientUnits="userSpaceOnUse">
<stop offset="0.0228848" stop-color="#D5EDFF"/>
<stop offset="0.14742" stop-color="#B5D9FF" stop-opacity="0.87"/>
<stop offset="0.635453" stop-color="#A7C0FF" stop-opacity="0.25"/>
<stop offset="1" stop-color="#8886FF" stop-opacity="0"/>
</linearGradient>
<linearGradient id="paint9_linear_2667_21242" x1="307" y1="79.0002" x2="349.5" y2="116" gradientUnits="userSpaceOnUse">
<stop stop-color="#F6DEFF"/>
<stop offset="1" stop-color="#C172FF"/>
</linearGradient>
<linearGradient id="paint10_linear_2667_21242" x1="307" y1="79.0002" x2="349.5" y2="116" gradientUnits="userSpaceOnUse">
<stop stop-color="#F6DEFF"/>
<stop offset="1" stop-color="#C172FF"/>
</linearGradient>
<linearGradient id="paint11_linear_2667_21242" x1="307" y1="79.0002" x2="349.5" y2="116" gradientUnits="userSpaceOnUse">
<stop stop-color="#F6DEFF"/>
<stop offset="1" stop-color="#C172FF"/>
</linearGradient>
<linearGradient id="paint12_linear_2667_21242" x1="306.5" y1="79.0002" x2="354.5" y2="117.5" gradientUnits="userSpaceOnUse">
<stop stop-color="#F573FF"/>
<stop offset="1" stop-color="#7B3AFF"/>
</linearGradient>
<linearGradient id="paint13_linear_2667_21242" x1="297.323" y1="56.1669" x2="355.51" y2="139.365" gradientUnits="userSpaceOnUse">
<stop stop-color="#9887FF" stop-opacity="0.44"/>
<stop offset="0.240822" stop-color="#48229E" stop-opacity="0"/>
<stop offset="0.45673" stop-color="#5527B6" stop-opacity="0"/>
<stop offset="1" stop-color="#E4CEFF" stop-opacity="0.13"/>
</linearGradient>
<linearGradient id="paint14_linear_2667_21242" x1="301.2" y1="60.9381" x2="352.588" y2="134.414" gradientUnits="userSpaceOnUse">
<stop stop-color="#D4A9FF" stop-opacity="0.46"/>
<stop offset="0.358527" stop-color="#5527B6" stop-opacity="0"/>
<stop offset="0.433704" stop-color="#342ACE" stop-opacity="0"/>
<stop offset="1" stop-color="#C9DEFF" stop-opacity="0.62"/>
</linearGradient>
<linearGradient id="paint15_linear_2667_21242" x1="326.875" y1="172" x2="326.875" y2="141.4" gradientUnits="userSpaceOnUse">
<stop stop-color="#D1FAFF"/>
<stop offset="1" stop-color="#74BCFF" stop-opacity="0.04"/>
</linearGradient>
<linearGradient id="paint16_linear_2667_21242" x1="407.444" y1="161.811" x2="423.48" y2="161.903" gradientUnits="userSpaceOnUse">
<stop stop-color="#4557F1"/>
<stop offset="1" stop-color="#312ED8"/>
</linearGradient>
<linearGradient id="paint17_linear_2667_21242" x1="415.5" y1="156.21" x2="415.5" y2="161.263" gradientUnits="userSpaceOnUse">
<stop stop-color="#7435FF"/>
<stop offset="1" stop-color="#A791FF"/>
</linearGradient>
<linearGradient id="paint18_linear_2667_21242" x1="415.921" y1="159.579" x2="416.5" y2="64" gradientUnits="userSpaceOnUse">
<stop stop-color="#F5F3FF"/>
<stop offset="0.0989583" stop-color="#C2B8FF"/>
<stop offset="0.322917" stop-color="#AD91FF" stop-opacity="0.44"/>
<stop offset="0.750925" stop-color="#8F5AFF" stop-opacity="0.09"/>
<stop offset="1" stop-color="#6C14DC" stop-opacity="0"/>
</linearGradient>
<linearGradient id="paint19_linear_2667_21242" x1="415.1" y1="152.842" x2="415.1" y2="148.295" gradientUnits="userSpaceOnUse">
<stop stop-color="#BAE0FF"/>
<stop offset="1" stop-color="#4298E8" stop-opacity="0"/>
</linearGradient>
<radialGradient id="paint20_radial_2667_21242" cx="0" cy="0" r="1" gradientUnits="userSpaceOnUse" gradientTransform="translate(9.29034 8.80138) rotate(-142.696) scale(12.9091)">
<stop offset="0.0174734" stop-color="#CB5CFF" stop-opacity="0.9"/>
<stop offset="0.803452" stop-color="#2926A9" stop-opacity="0"/>
</radialGradient>
<linearGradient id="paint21_linear_2667_21242" x1="453.653" y1="70.8081" x2="453.653" y2="60.6306" gradientUnits="userSpaceOnUse">
<stop stop-color="#79DFFF"/>
<stop offset="1" stop-color="#FEB5FF"/>
</linearGradient>
<linearGradient id="paint22_linear_2667_21242" x1="444.602" y1="53.433" x2="461.085" y2="77.0008" gradientUnits="userSpaceOnUse">
<stop stop-color="#D4A9FF" stop-opacity="0.46"/>
<stop offset="0.225506" stop-color="#8457D1" stop-opacity="0.09"/>
<stop offset="0.358527" stop-color="#5527B6" stop-opacity="0"/>
<stop offset="0.681864" stop-color="#342ACE" stop-opacity="0.07"/>
<stop offset="0.815604" stop-color="#7276E3" stop-opacity="0.17"/>
<stop offset="1" stop-color="#C9DEFF" stop-opacity="0.62"/>
</linearGradient>
<radialGradient id="paint23_radial_2667_21242" cx="0" cy="0" r="1" gradientUnits="userSpaceOnUse" gradientTransform="translate(9.025 8.55) rotate(-142.696) scale(12.5404)">
<stop offset="0.0174734" stop-color="#CB5CFF" stop-opacity="0.9"/>
<stop offset="0.803452" stop-color="#2926A9" stop-opacity="0"/>
</radialGradient>
<linearGradient id="paint24_linear_2667_21242" x1="231.472" y1="108.333" x2="231.472" y2="98.4464" gradientUnits="userSpaceOnUse">
<stop stop-color="#79DFFF"/>
<stop offset="1" stop-color="#FEB5FF"/>
</linearGradient>
<linearGradient id="paint25_linear_2667_21242" x1="223.036" y1="93.0833" x2="237.88" y2="114.307" gradientUnits="userSpaceOnUse">
<stop stop-color="#9887FF" stop-opacity="0.44"/>
<stop offset="0.240822" stop-color="#48229E" stop-opacity="0"/>
<stop offset="0.45673" stop-color="#5527B6" stop-opacity="0"/>
<stop offset="1" stop-color="#E4CEFF" stop-opacity="0.13"/>
</linearGradient>
<radialGradient id="paint26_radial_2667_21242" cx="0" cy="0" r="1" gradientUnits="userSpaceOnUse" gradientTransform="translate(35.9927 34.0984) rotate(-142.696) scale(50.0124)">
<stop offset="0.0174734" stop-color="#CB5CFF" stop-opacity="0.9"/>
<stop offset="0.803452" stop-color="#2926A9" stop-opacity="0"/>
</radialGradient>
<linearGradient id="paint27_linear_2667_21242" x1="93.0469" y1="79.25" x2="144.703" y2="153.109" gradientUnits="userSpaceOnUse">
<stop stop-color="#F5D7FF" stop-opacity="0.25"/>
<stop offset="0.134264" stop-color="#CA94F2" stop-opacity="0.16"/>
<stop offset="0.49488" stop-color="#7142DA" stop-opacity="0"/>
<stop offset="0.655898" stop-color="#824CF4" stop-opacity="0"/>
<stop offset="1" stop-color="#B6FBFF" stop-opacity="0.22"/>
</linearGradient>
<linearGradient id="paint28_linear_2667_21242" x1="97.2482" y1="84.3284" x2="142.239" y2="148.658" gradientUnits="userSpaceOnUse">
<stop stop-color="white" stop-opacity="0.51"/>
<stop offset="0.134264" stop-color="#CA94F2" stop-opacity="0.16"/>
<stop offset="0.49488" stop-color="#7142DA" stop-opacity="0"/>
<stop offset="0.655898" stop-color="#824CF4" stop-opacity="0"/>
<stop offset="1" stop-color="#E0FDFF" stop-opacity="0.46"/>
</linearGradient>
<linearGradient id="paint29_linear_2667_21242" x1="132.631" y1="109.837" x2="99.9249" y2="90.1174" gradientUnits="userSpaceOnUse">
<stop offset="0.325777" stop-color="#665BED"/>
<stop offset="1" stop-color="#9991FF"/>
</linearGradient>
<linearGradient id="paint30_linear_2667_21242" x1="107.291" y1="104.985" x2="107.971" y2="108.84" gradientUnits="userSpaceOnUse">
<stop stop-color="#CCF6FF" stop-opacity="0.88"/>
<stop offset="1" stop-color="#CE66FF"/>
</linearGradient>
<linearGradient id="paint31_linear_2667_21242" x1="116.759" y1="139.177" x2="110.506" y2="101.18" gradientUnits="userSpaceOnUse">
<stop stop-color="#9990FF"/>
<stop offset="0.961914" stop-color="#4B3CFF"/>
</linearGradient>
<linearGradient id="paint32_linear_2667_21242" x1="140.327" y1="136.772" x2="104.236" y2="110.134" gradientUnits="userSpaceOnUse">
<stop stop-color="#5C4EFF"/>
<stop offset="0.401551" stop-color="#4B3CFF"/>
<stop offset="1" stop-color="#786CFF"/>
</linearGradient>
<linearGradient id="paint33_linear_2667_21242" x1="124.841" y1="132.256" x2="124.841" y2="123.952" gradientUnits="userSpaceOnUse">
<stop stop-color="#3E0F89"/>
<stop offset="1" stop-color="#001480" stop-opacity="0"/>
</linearGradient>
<radialGradient id="paint34_radial_2667_21242" cx="0" cy="0" r="1" gradientUnits="userSpaceOnUse" gradientTransform="translate(117.307 124.488) rotate(-40.9528) scale(15.0471 17.739)">
<stop stop-color="#696EF4"/>
<stop offset="1" stop-color="#0B0231"/>
</radialGradient>
<radialGradient id="paint35_radial_2667_21242" cx="0" cy="0" r="1" gradientUnits="userSpaceOnUse" gradientTransform="translate(120.894 130.344) rotate(-63.6754) scale(17.5361 20.6733)">
<stop offset="0.384203" stop-color="#CE66FF"/>
<stop offset="1" stop-color="#3315AB"/>
</radialGradient>
<linearGradient id="paint36_linear_2667_21242" x1="122.842" y1="127.144" x2="138.216" y2="121.964" gradientUnits="userSpaceOnUse">
<stop stop-color="white"/>
<stop offset="1" stop-color="#C4C4C4" stop-opacity="0"/>
</linearGradient>
<radialGradient id="paint37_radial_2667_21242" cx="0" cy="0" r="1" gradientUnits="userSpaceOnUse" gradientTransform="translate(25.2363 23.9081) rotate(-142.696) scale(35.0662)">
<stop offset="0.0174734" stop-color="#CB5CFF" stop-opacity="0.9"/>
<stop offset="0.803452" stop-color="#2926A9" stop-opacity="0"/>
</radialGradient>
<linearGradient id="paint38_linear_2667_21242" x1="517.355" y1="110.667" x2="550.605" y2="158.208" gradientUnits="userSpaceOnUse">
<stop stop-color="white" stop-opacity="0.51"/>
<stop offset="0.134264" stop-color="#CA94F2" stop-opacity="0.16"/>
<stop offset="0.49488" stop-color="#7142DA" stop-opacity="0"/>
<stop offset="0.655898" stop-color="#824CF4" stop-opacity="0"/>
<stop offset="1" stop-color="#E0FDFF" stop-opacity="0.46"/>
</linearGradient>
<linearGradient id="paint39_linear_2667_21242" x1="526.813" y1="144" x2="532.813" y2="123" gradientUnits="userSpaceOnUse">
<stop stop-color="#948BFF"/>
<stop offset="1" stop-color="#5D4FFF"/>
</linearGradient>
<linearGradient id="paint40_linear_2667_21242" x1="530.313" y1="146" x2="553.313" y2="128.5" gradientUnits="userSpaceOnUse">
<stop stop-color="#5046B1"/>
<stop offset="1" stop-color="#3B33A7"/>
</linearGradient>
<linearGradient id="paint41_linear_2667_21242" x1="174.933" y1="202.65" x2="193.976" y2="202.76" gradientUnits="userSpaceOnUse">
<stop stop-color="#4557F1"/>
<stop offset="1" stop-color="#312ED8"/>
</linearGradient>
<linearGradient id="paint42_linear_2667_21242" x1="184.5" y1="196" x2="184.5" y2="202" gradientUnits="userSpaceOnUse">
<stop stop-color="#7435FF"/>
<stop offset="1" stop-color="#A791FF"/>
</linearGradient>
<linearGradient id="paint43_linear_2667_21242" x1="185" y1="200" x2="185" y2="94.5" gradientUnits="userSpaceOnUse">
<stop offset="0.015625" stop-color="#EEEBFF"/>
<stop offset="0.0989583" stop-color="#C2B8FF"/>
<stop offset="0.322917" stop-color="#AD91FF" stop-opacity="0.44"/>
<stop offset="0.750925" stop-color="#8F5AFF" stop-opacity="0.09"/>
<stop offset="1" stop-color="#6C14DC" stop-opacity="0"/>
</linearGradient>
<linearGradient id="paint44_linear_2667_21242" x1="184.025" y1="192" x2="184.025" y2="186.6" gradientUnits="userSpaceOnUse">
<stop stop-color="#BAE0FF"/>
<stop offset="1" stop-color="#4298E8" stop-opacity="0"/>
</linearGradient>
<linearGradient id="paint45_linear_2667_21242" x1="471.933" y1="202.65" x2="490.976" y2="202.76" gradientUnits="userSpaceOnUse">
<stop stop-color="#4557F1"/>
<stop offset="1" stop-color="#312ED8"/>
</linearGradient>
<linearGradient id="paint46_linear_2667_21242" x1="481.5" y1="196" x2="481.5" y2="202" gradientUnits="userSpaceOnUse">
<stop stop-color="#7435FF"/>
<stop offset="1" stop-color="#A791FF"/>
</linearGradient>
<linearGradient id="paint47_linear_2667_21242" x1="482" y1="200" x2="482" y2="58" gradientUnits="userSpaceOnUse">
<stop offset="0.015625" stop-color="#ECEBFF"/>
<stop offset="0.0989583" stop-color="#C2B8FF"/>
<stop offset="0.322917" stop-color="#AD91FF" stop-opacity="0.44"/>
<stop offset="0.750925" stop-color="#8F5AFF" stop-opacity="0.09"/>
<stop offset="1" stop-color="#6C14DC" stop-opacity="0"/>
</linearGradient>
<linearGradient id="paint48_linear_2667_21242" x1="481.025" y1="192" x2="481.025" y2="186.6" gradientUnits="userSpaceOnUse">
<stop stop-color="#BAE0FF"/>
<stop offset="1" stop-color="#4298E8" stop-opacity="0"/>
</linearGradient>
<radialGradient id="paint49_radial_2667_21242" cx="0" cy="0" r="1" gradientUnits="userSpaceOnUse" gradientTransform="translate(11.8939 11.2679) rotate(-142.696) scale(16.5268)">
<stop offset="0.0174734" stop-color="#CB5CFF" stop-opacity="0.9"/>
<stop offset="0.803452" stop-color="#2926A9" stop-opacity="0"/>
</radialGradient>
<linearGradient id="paint50_linear_2667_21242" x1="25.1354" y1="132.167" x2="47.6979" y2="164.427" gradientUnits="userSpaceOnUse">
<stop stop-color="#9887FF" stop-opacity="0.44"/>
<stop offset="0.240822" stop-color="#48229E" stop-opacity="0"/>
<stop offset="0.45673" stop-color="#5527B6" stop-opacity="0"/>
<stop offset="1" stop-color="#E4CEFF" stop-opacity="0.13"/>
</linearGradient>
<linearGradient id="paint51_linear_2667_21242" x1="37.6117" y1="155.244" x2="37.6117" y2="142.215" gradientUnits="userSpaceOnUse">
<stop stop-color="#79DFFF"/>
<stop offset="1" stop-color="#FEB5FF"/>
</linearGradient>
</defs>
</svg>
