<svg width="264" height="280" viewBox="0 0 264 280" fill="none" xmlns="http://www.w3.org/2000/svg">
<path d="M136.493 104.201V182.839C136.493 191.258 133.149 199.333 127.195 205.286C121.242 211.239 113.168 214.584 104.749 214.584C96.3296 214.584 88.2553 211.239 82.3021 205.286C76.3489 199.333 73.0044 191.258 73.0044 182.839V104.201C73.0044 106.073 74.5822 107.822 77.3341 109.327C82.851 112.34 93.0573 114.363 104.749 114.363C116.44 114.363 126.655 112.342 132.163 109.327C134.911 107.822 136.493 106.073 136.493 104.201Z" fill="url(#paint0_linear_2611_18264)"/>
<path d="M136.493 104.201C136.493 106.072 134.915 107.822 132.163 109.327C126.651 112.342 116.436 114.372 104.744 114.372C93.0529 114.372 82.8378 112.348 77.3297 109.336C74.5778 107.831 73 106.081 73 104.21C73 98.598 87.2138 94.0476 104.744 94.0476C122.275 94.0476 136.493 98.5891 136.493 104.201Z" fill="url(#paint1_linear_2611_18264)"/>
<path d="M136.493 229.888C136.493 231.759 134.915 233.509 132.163 235.014C128.438 237.053 122.56 238.637 115.527 239.449C108.364 240.25 101.134 240.25 93.9709 239.449C86.9379 238.637 81.0591 237.051 77.3341 235.014C74.5822 233.509 73.0044 231.759 73.0044 229.888C73.0044 224.276 87.2182 219.725 104.749 219.725C122.279 219.725 136.493 224.276 136.493 229.888Z" fill="#815CCD"/>
<path d="M132.159 109.328V182.839C132.159 190.11 129.271 197.083 124.13 202.225C118.988 207.366 112.015 210.254 104.745 210.254C97.4737 210.254 90.5007 207.366 85.3594 202.225C80.2182 197.083 77.3298 190.11 77.3298 182.839V109.328C82.8468 112.34 93.0531 114.363 104.745 114.363C116.436 114.363 126.651 112.342 132.159 109.328Z" fill="url(#paint2_linear_2611_18264)"/>
<path d="M132.159 165.388V182.839C132.159 190.11 129.271 197.083 124.13 202.225C118.988 207.366 112.015 210.254 104.745 210.254C97.4737 210.254 90.5007 207.366 85.3594 202.225C80.2182 197.083 77.3298 190.11 77.3298 182.839V161.875C80.9511 160.736 86.0753 159.799 93.1215 159.799C109.321 159.79 116.513 168.396 132.159 165.388Z" fill="url(#paint3_linear_2611_18264)"/>
<g style="mix-blend-mode:lighten">
<path d="M132.159 165.388V182.839C132.159 190.11 129.271 197.083 124.13 202.225C118.988 207.366 112.015 210.254 104.745 210.254C97.4737 210.254 90.5007 207.366 85.3594 202.225C80.2182 197.083 77.3298 190.11 77.3298 182.839V161.875C80.9511 160.736 86.0753 159.799 93.1215 159.799C109.321 159.79 116.513 168.396 132.159 165.388Z" fill="url(#paint4_linear_2611_18264)"/>
</g>
<path d="M136.493 229.887V235.014C136.493 236.885 134.915 238.635 132.163 240.14C126.646 243.155 116.44 245.176 104.749 245.176C93.0573 245.176 82.8422 243.152 77.3341 240.14C74.5822 238.635 73.0044 236.885 73.0044 235.014V229.887C73.0044 231.759 74.5822 233.509 77.3341 235.014C81.0591 237.051 86.9379 238.637 93.9709 239.449C101.134 240.25 108.364 240.25 115.527 239.449C122.56 238.637 128.438 237.053 132.163 235.014C134.911 233.509 136.493 231.759 136.493 229.887Z" fill="url(#paint5_linear_2611_18264)"/>
<g style="mix-blend-mode:color-dodge">
<path fill-rule="evenodd" clip-rule="evenodd" d="M93 113.645V186H81V110.945C84.2624 112.121 88.3619 113.053 93 113.645Z" fill="url(#paint6_linear_2611_18264)"/>
</g>
<path d="M231 70.031V148.669C231 157.088 227.655 165.163 221.702 171.116C215.749 177.069 207.675 180.413 199.256 180.413C190.836 180.413 182.762 177.069 176.809 171.116C170.856 165.163 167.511 157.088 167.511 148.669V70.031C167.511 71.9023 169.089 73.6523 171.841 75.1573C177.358 78.1696 187.564 80.1932 199.256 80.1932C210.947 80.1932 221.162 78.1718 226.67 75.1573C229.422 73.6523 231 71.9023 231 70.031Z" fill="url(#paint7_linear_2611_18264)"/>
<path d="M231 70.031C231 71.9023 229.422 73.6523 226.67 75.1573C221.153 78.1718 210.947 80.1932 199.256 80.1932C187.564 80.1932 177.349 78.1696 171.841 75.1573C169.089 73.6523 167.511 71.9023 167.511 70.031C167.511 64.4192 181.725 59.8799 199.256 59.8799C216.786 59.8799 231 64.417 231 70.031Z" fill="url(#paint8_linear_2611_18264)"/>
<path d="M231 195.718C231 197.589 229.422 199.339 226.67 200.844C222.945 202.883 217.066 204.467 210.033 205.279C202.87 206.08 195.641 206.08 188.478 205.279C181.445 204.467 175.566 202.881 171.841 200.844C169.089 199.339 167.511 197.589 167.511 195.718C167.511 190.106 181.725 185.566 199.256 185.566C216.786 185.566 231 190.106 231 195.718Z" fill="#815CCD"/>
<path d="M226.67 75.1577V148.67C226.67 155.94 223.782 162.913 218.641 168.055C213.5 173.196 206.527 176.084 199.256 176.084C191.985 176.084 185.012 173.196 179.871 168.055C174.729 162.913 171.841 155.94 171.841 148.67V75.1577C177.358 78.17 187.564 80.1936 199.256 80.1936C210.947 80.1936 221.162 78.1722 226.67 75.1577Z" fill="url(#paint9_linear_2611_18264)"/>
<g style="mix-blend-mode:color-dodge">
<path fill-rule="evenodd" clip-rule="evenodd" d="M188 79.645V152H176V76.9448C179.262 78.1209 183.362 79.0531 188 79.645Z" fill="url(#paint10_linear_2611_18264)"/>
</g>
<path d="M231 195.717L231 235.333C231 237.204 229.422 238.954 226.67 240.459C221.153 243.473 210.947 245.495 199.256 245.495C187.564 245.495 177.349 243.471 171.841 240.459C169.089 238.954 167.511 237.204 167.511 235.333L167.511 195.717C167.511 197.589 169.089 199.339 171.841 200.844C175.566 202.88 181.445 204.467 188.478 205.279C195.641 206.08 202.87 206.08 210.033 205.279C217.066 204.467 222.945 202.883 226.67 200.844C229.422 199.339 231 197.589 231 195.717Z" fill="url(#paint11_linear_2611_18264)"/>
<path d="M226.67 111.501V148.669C226.67 155.94 223.782 162.913 218.641 168.054C213.5 173.196 206.527 176.084 199.256 176.084C191.985 176.084 185.012 173.196 179.871 168.054C174.729 162.913 171.841 155.94 171.841 148.669V114.317C177.855 116.234 186.604 117.428 195.648 113.171C204.461 109.022 215.14 107.054 226.67 111.501Z" fill="url(#paint12_linear_2611_18264)"/>
<g style="mix-blend-mode:lighten">
<path d="M226.67 111.501V148.669C226.67 155.94 223.782 162.913 218.641 168.054C213.5 173.196 206.527 176.084 199.256 176.084C191.985 176.084 185.012 173.196 179.871 168.054C174.729 162.913 171.841 155.94 171.841 148.669V114.317C177.855 116.234 186.604 117.428 195.648 113.171C204.461 109.022 215.14 107.054 226.67 111.501Z" fill="url(#paint13_linear_2611_18264)"/>
</g>
<path d="M180.291 47.58C187.493 44.8116 194.752 45.7954 196.505 49.7796C198.258 53.7637 193.839 59.2363 186.637 62.0046C179.435 64.773 172.167 63.7912 170.414 59.8085C168.662 55.8258 173.086 50.3493 180.291 47.58Z" fill="url(#paint14_linear_2611_18264)"/>
<path d="M178.97 66.9823C179.492 67.0106 180.029 67.0147 180.58 66.9949L180.583 67C181.021 66.9809 181.463 66.9507 181.909 66.9034L181.908 66.9005C182.305 66.8598 182.707 66.806 183.114 66.7415C183.492 66.6811 183.873 66.61 184.258 66.5269L182.612 62.7721C182.229 62.8536 181.849 62.9247 181.471 62.9854C181.064 63.0513 180.661 63.1044 180.262 63.1457L180.263 63.1486C179.813 63.1981 179.374 63.2283 178.944 63.2449L178.942 63.2398C178.384 63.2616 177.845 63.257 177.324 63.226C173.778 63.0328 170.994 61.7246 169.993 59.4407L171.638 63.1955C172.639 65.4795 175.424 66.7876 178.97 66.9823Z" fill="url(#paint15_linear_2611_18264)"/>
<path d="M196.288 49.3874L197.934 53.1423C198.021 53.3553 198.093 53.5735 198.147 53.7948L196.501 50.04C196.447 49.8187 196.376 49.6004 196.288 49.3874Z" fill="url(#paint16_linear_2611_18264)"/>
<path d="M196.499 50.0409L198.144 53.7958C198.197 54.0104 198.235 54.2272 198.257 54.4441L198.26 54.4521C198.282 54.6787 198.288 54.9047 198.28 55.1285C198.269 55.3676 198.242 55.6036 198.2 55.835L198.203 55.8422C198.158 56.1072 198.096 56.367 198.018 56.6198L196.372 52.8649C196.45 52.6121 196.512 52.3524 196.558 52.0873L196.554 52.0801C196.596 51.846 196.621 51.607 196.63 51.365L196.634 51.3723C196.643 51.1538 196.637 50.9331 196.618 50.7117L196.612 50.6982C196.59 50.4784 196.553 50.2586 196.499 50.0409Z" fill="url(#paint17_linear_2611_18264)"/>
<path d="M196.368 52.8664L198.014 56.6213C197.922 56.9212 197.812 57.2127 197.685 57.4941L197.686 57.4977C197.515 57.8741 197.32 58.2357 197.102 58.5804L197.104 58.584C196.708 59.2117 196.26 59.7977 195.764 60.3361C195.124 61.0293 194.43 61.6648 193.688 62.2373C193.003 62.7668 192.286 63.2523 191.541 63.6913C191.072 63.9681 190.581 64.2303 190.071 64.4893C189.664 64.6921 189.245 64.8868 188.816 65.0695C188.536 65.191 188.251 65.3058 187.964 65.4168L187.626 65.5474L187.623 65.5416C187.247 65.6866 186.866 65.812 186.489 65.9306L184.843 62.1757C185.222 62.0567 185.603 61.9265 185.982 61.7852L185.984 61.791L186.318 61.662C186.605 61.5512 186.889 61.4354 187.17 61.3146C187.598 61.1327 188.015 60.9379 188.421 60.7375C188.929 60.484 189.42 60.2162 189.895 59.9365C190.64 59.4974 191.357 59.012 192.042 58.4824C192.784 57.91 193.478 57.2745 194.118 56.5813C194.613 56.0445 195.06 55.4604 195.455 54.8349L195.453 54.8312C195.671 54.4864 195.867 54.1246 196.038 53.748L196.037 53.7444C196.165 53.4614 196.276 53.1682 196.368 52.8664Z" fill="url(#paint18_linear_2611_18264)"/>
<path d="M186.486 65.935L185.116 62.8074L184.841 62.1802C184.469 62.298 184.098 62.4057 183.728 62.5035C183.352 62.5977 182.98 62.6856 182.612 62.7653L184.258 66.5201C184.628 66.4463 185.001 66.3583 185.373 66.2583C185.743 66.1606 186.114 66.0528 186.486 65.935Z" fill="url(#paint19_linear_2611_18264)"/>
<path d="M148.266 41.0992C154.956 45.569 158.368 52.1017 155.886 55.6919C153.404 59.2821 145.97 58.5673 139.281 54.0975C132.591 49.6277 129.171 43.088 131.652 39.4991C134.133 35.9103 141.575 36.6278 148.266 41.0992Z" fill="url(#paint20_linear_2611_18264)"/>
<path d="M130.513 50.6559C130.796 51.1023 131.108 51.5478 131.449 51.9926L131.446 51.9972C131.721 52.3495 132.007 52.698 132.311 53.0413L132.313 53.0388C132.583 53.3457 132.866 53.6484 133.162 53.9504C133.438 54.2304 133.725 54.5075 134.024 54.7807L136.348 51.4155C136.051 51.1427 135.765 50.8664 135.49 50.5865C135.192 50.2855 134.909 49.9808 134.638 49.6736L134.636 49.6762C134.328 49.3308 134.043 48.9843 133.776 48.6381L133.779 48.6335C133.431 48.184 133.118 47.736 132.839 47.2894C130.922 44.2568 130.431 41.2576 131.845 39.2107L129.52 42.5759C128.106 44.6228 128.597 47.6219 130.513 50.6559Z" fill="url(#paint21_linear_2611_18264)"/>
<path d="M156.133 55.5641L153.808 58.9293C153.673 59.1153 153.524 59.2907 153.361 59.4538L155.686 56.0886C155.848 55.9256 155.998 55.7501 156.133 55.5641Z" fill="url(#paint22_linear_2611_18264)"/>
<path d="M155.684 56.087L153.359 59.4522C153.202 59.6108 153.034 59.7576 152.857 59.8912L152.852 59.8984C152.666 60.0373 152.471 60.1634 152.27 60.276C152.054 60.3947 151.831 60.4987 151.604 60.5875L151.599 60.5939C151.34 60.6978 151.076 60.7854 150.808 60.8561L153.133 57.491C153.4 57.4203 153.664 57.3327 153.924 57.2288L153.928 57.2223C154.158 57.1316 154.383 57.0249 154.6 56.9031L154.596 56.9095C154.793 56.8004 154.983 56.6782 155.166 56.5437L155.174 56.5316C155.354 56.3965 155.525 56.2478 155.684 56.087Z" fill="url(#paint23_linear_2611_18264)"/>
<path d="M153.129 57.4885L150.804 60.8537C150.487 60.938 150.167 61.0029 149.845 61.048L149.843 61.0512C149.412 61.1109 148.98 61.1429 148.55 61.1471L148.548 61.1504C147.764 61.1585 146.987 61.1013 146.223 60.9793C145.238 60.8208 144.273 60.587 143.334 60.2797C142.466 59.9967 141.619 59.6638 140.795 59.2825C140.277 59.0434 139.758 58.7775 139.231 58.4951C138.814 58.2672 138.396 58.0246 137.983 57.7675C137.712 57.6012 137.444 57.4278 137.178 57.2496L136.864 57.0399L136.868 57.0347C136.52 56.8016 136.185 56.5534 135.859 56.3054L138.184 52.9402C138.511 53.1891 138.849 53.4343 139.196 53.672L139.193 53.6772L139.502 53.8844C139.769 54.0623 140.037 54.235 140.308 54.4023C140.719 54.6584 141.136 54.8993 141.55 55.1276C142.072 55.4117 142.595 55.6743 143.12 55.9173C143.944 56.2986 144.791 56.6316 145.659 56.9146C146.597 57.2219 147.563 57.4557 148.547 57.6141C149.309 57.7358 150.084 57.793 150.865 57.7853L150.868 57.782C151.298 57.7781 151.731 57.7463 152.162 57.6869L152.164 57.6836C152.488 57.6385 152.81 57.5733 153.129 57.4885Z" fill="url(#paint24_linear_2611_18264)"/>
<path d="M135.854 56.3056L137.79 53.5026L138.179 52.9404C137.856 52.6959 137.544 52.447 137.24 52.1937C136.937 51.9339 136.641 51.6735 136.354 51.4119L134.03 54.7771C134.312 55.0438 134.608 55.3043 134.916 55.5588C135.219 55.8121 135.532 56.0611 135.854 56.3056Z" fill="url(#paint25_linear_2611_18264)"/>
<path d="M99.3845 63.9151C104.564 57.3348 111.294 53.9732 114.418 56.4086C117.542 58.8439 115.874 66.1521 110.695 72.7324C105.516 79.3128 98.7779 82.6818 95.6551 80.2473C92.5323 77.8128 94.2035 70.4978 99.3845 63.9151Z" fill="url(#paint26_linear_2611_18264)"/>
<path d="M106.603 81.6344C107.065 81.3583 107.531 81.0533 107.999 80.7194L108.003 80.7225C108.374 80.4539 108.744 80.1742 109.11 79.8772L109.108 79.8755C109.436 79.6119 109.761 79.3351 110.087 79.0459C110.39 78.7769 110.692 78.4967 110.991 78.2046L108.09 75.9404C107.791 76.2304 107.491 76.5099 107.188 76.7791C106.862 77.0696 106.535 77.3467 106.207 77.6112L106.209 77.613C105.84 77.9141 105.473 78.1923 105.108 78.4537L105.104 78.4506C104.631 78.7902 104.163 79.0965 103.701 79.3693C100.562 81.243 97.6412 81.7257 95.8766 80.3484L98.7777 82.6126C100.542 83.9899 103.463 83.5073 106.603 81.6344Z" fill="url(#paint27_linear_2611_18264)"/>
<path d="M114.628 56.6323L117.529 58.8965C117.689 59.0283 117.836 59.174 117.971 59.332L115.069 57.0677C114.935 56.9098 114.788 56.7641 114.628 56.6323Z" fill="url(#paint28_linear_2611_18264)"/>
<path d="M115.068 57.0701L117.969 59.3343C118.099 59.4872 118.217 59.651 118.321 59.8241L118.327 59.8289C118.435 60.0102 118.53 60.1997 118.611 60.396C118.696 60.6066 118.766 60.8238 118.82 61.0458L118.826 61.0501C118.891 61.303 118.94 61.5607 118.972 61.8216L116.071 59.5574C116.039 59.2965 115.99 59.0388 115.925 58.7859L115.919 58.7816C115.863 58.5575 115.791 58.3385 115.703 58.1265L115.709 58.1308C115.63 57.9388 115.539 57.7531 115.435 57.5751L115.424 57.567C115.319 57.3913 115.2 57.2251 115.068 57.0701Z" fill="url(#paint29_linear_2611_18264)"/>
<path d="M116.068 59.5609L118.97 61.8252C119.008 62.1345 119.028 62.4469 119.029 62.7608L119.032 62.7629C119.032 63.1832 119.006 63.6045 118.954 64.0244L118.957 64.0266C118.862 64.791 118.706 65.5497 118.49 66.2952C118.21 67.256 117.861 68.1983 117.446 69.1145C117.063 69.9612 116.635 70.7884 116.164 71.5925C115.869 72.0984 115.548 72.6052 115.21 73.1195C114.938 73.5269 114.652 73.9346 114.353 74.3377C114.16 74.6025 113.959 74.8641 113.755 75.1243L113.514 75.4304L113.51 75.4269C113.242 75.7671 112.962 76.0937 112.683 76.4118L109.782 74.1476C110.062 73.8283 110.34 73.498 110.611 73.1592L110.616 73.1627L110.854 72.8601C111.058 72.6003 111.258 72.3381 111.452 72.0735C111.75 71.672 112.034 71.2654 112.306 70.8606C112.644 70.3518 112.963 69.8405 113.263 69.3282C113.734 68.5242 114.162 67.6969 114.545 66.8502C114.96 65.9341 115.309 64.9917 115.589 64.0309C115.804 63.2877 115.96 62.5313 116.055 61.7693L116.052 61.7671C116.105 61.3468 116.131 60.9251 116.131 60.5044L116.128 60.5022C116.127 60.1864 116.107 59.8721 116.068 59.5609Z" fill="url(#paint30_linear_2611_18264)"/>
<path d="M112.683 76.4171L110.266 74.5311L109.782 74.1528C109.507 74.4676 109.229 74.773 108.948 75.0692C108.661 75.3657 108.374 75.6548 108.087 75.9346L110.988 78.1988C111.279 77.9225 111.566 77.6334 111.849 77.3335C112.13 77.0373 112.408 76.7318 112.683 76.4171Z" fill="url(#paint31_linear_2611_18264)"/>
<defs>
<linearGradient id="paint0_linear_2611_18264" x1="88.238" y1="222.197" x2="88.238" y2="101.421" gradientUnits="userSpaceOnUse">
<stop stop-color="#99B2F1"/>
<stop offset="0.525105" stop-color="#749AFC" stop-opacity="0.37"/>
<stop offset="0.768973" stop-color="#6993FF" stop-opacity="0.12"/>
<stop offset="1" stop-color="#85A7FF" stop-opacity="0.17"/>
</linearGradient>
<linearGradient id="paint1_linear_2611_18264" x1="104.747" y1="83.9259" x2="104.747" y2="114.372" gradientUnits="userSpaceOnUse">
<stop stop-color="#3F3979"/>
<stop offset="1" stop-color="#29224A"/>
</linearGradient>
<linearGradient id="paint2_linear_2611_18264" x1="114.763" y1="204.701" x2="114.763" y2="117.788" gradientUnits="userSpaceOnUse">
<stop offset="0.351022" stop-color="#CEC1FF"/>
<stop offset="0.75313" stop-color="#9573FF" stop-opacity="0.21"/>
<stop offset="1" stop-color="#7342FF" stop-opacity="0"/>
</linearGradient>
<linearGradient id="paint3_linear_2611_18264" x1="104.605" y1="210.345" x2="104.605" y2="160" gradientUnits="userSpaceOnUse">
<stop stop-color="#FF8FFB"/>
<stop offset="1" stop-color="#BA27FF"/>
</linearGradient>
<linearGradient id="paint4_linear_2611_18264" x1="77" y1="181" x2="132" y2="181" gradientUnits="userSpaceOnUse">
<stop stop-color="#FD9EFF"/>
<stop offset="1" stop-color="#B327F5" stop-opacity="0"/>
</linearGradient>
<linearGradient id="paint5_linear_2611_18264" x1="104.749" y1="229.887" x2="104.749" y2="265.653" gradientUnits="userSpaceOnUse">
<stop stop-color="#6730D7"/>
<stop offset="1" stop-color="#34244F"/>
</linearGradient>
<linearGradient id="paint6_linear_2611_18264" x1="84.5" y1="110.945" x2="84.5" y2="186" gradientUnits="userSpaceOnUse">
<stop stop-color="#CAB1FF" stop-opacity="0.4"/>
<stop offset="0.0994802" stop-color="#CAB1FF" stop-opacity="0.33"/>
<stop offset="1" stop-color="#2F44FF" stop-opacity="0"/>
</linearGradient>
<linearGradient id="paint7_linear_2611_18264" x1="182.745" y1="188.026" x2="182.745" y2="67.251" gradientUnits="userSpaceOnUse">
<stop stop-color="#99B2F1"/>
<stop offset="0.525105" stop-color="#749AFC" stop-opacity="0.37"/>
<stop offset="0.768973" stop-color="#6993FF" stop-opacity="0.12"/>
<stop offset="1" stop-color="#85A7FF" stop-opacity="0.17"/>
</linearGradient>
<linearGradient id="paint8_linear_2611_18264" x1="199.256" y1="49.7636" x2="199.256" y2="80.1932" gradientUnits="userSpaceOnUse">
<stop stop-color="#3F3979"/>
<stop offset="1" stop-color="#29224A"/>
</linearGradient>
<linearGradient id="paint9_linear_2611_18264" x1="209.275" y1="170.531" x2="209.275" y2="83.6183" gradientUnits="userSpaceOnUse">
<stop offset="0.351022" stop-color="#CEC1FF"/>
<stop offset="0.75313" stop-color="#9573FF" stop-opacity="0.21"/>
<stop offset="1" stop-color="#7342FF" stop-opacity="0"/>
</linearGradient>
<linearGradient id="paint10_linear_2611_18264" x1="179.5" y1="76.9448" x2="179.5" y2="152" gradientUnits="userSpaceOnUse">
<stop stop-color="#B1C7FF" stop-opacity="0.33"/>
<stop offset="0.0994802" stop-color="#B1BEFF" stop-opacity="0.33"/>
<stop offset="1" stop-color="#2F82FF" stop-opacity="0"/>
</linearGradient>
<linearGradient id="paint11_linear_2611_18264" x1="199.419" y1="182.817" x2="199.419" y2="285.532" gradientUnits="userSpaceOnUse">
<stop stop-color="#6730D7"/>
<stop offset="1" stop-color="#34244F"/>
</linearGradient>
<linearGradient id="paint12_linear_2611_18264" x1="199.116" y1="176.205" x2="199.116" y2="112.5" gradientUnits="userSpaceOnUse">
<stop stop-color="#60D9FF"/>
<stop offset="1" stop-color="#284BFF"/>
</linearGradient>
<linearGradient id="paint13_linear_2611_18264" x1="172" y1="150" x2="227" y2="150" gradientUnits="userSpaceOnUse">
<stop stop-color="#9EBFFF"/>
<stop offset="1" stop-color="#284BFF" stop-opacity="0"/>
</linearGradient>
<linearGradient id="paint14_linear_2611_18264" x1="180.286" y1="47.5817" x2="185.934" y2="62.2749" gradientUnits="userSpaceOnUse">
<stop stop-color="#7583FF"/>
<stop offset="1" stop-color="#849FFF"/>
</linearGradient>
<linearGradient id="paint15_linear_2611_18264" x1="173.216" y1="64.3664" x2="195.884" y2="57.0876" gradientUnits="userSpaceOnUse">
<stop stop-color="#547FEE"/>
<stop offset="1" stop-color="#3244FF"/>
</linearGradient>
<linearGradient id="paint16_linear_2611_18264" x1="173.216" y1="64.3664" x2="195.884" y2="57.0876" gradientUnits="userSpaceOnUse">
<stop stop-color="#547FEE"/>
<stop offset="1" stop-color="#3244FF"/>
</linearGradient>
<linearGradient id="paint17_linear_2611_18264" x1="173.216" y1="64.3664" x2="195.884" y2="57.0876" gradientUnits="userSpaceOnUse">
<stop stop-color="#547FEE"/>
<stop offset="1" stop-color="#3244FF"/>
</linearGradient>
<linearGradient id="paint18_linear_2611_18264" x1="173.216" y1="64.3664" x2="195.884" y2="57.0876" gradientUnits="userSpaceOnUse">
<stop stop-color="#547FEE"/>
<stop offset="1" stop-color="#3244FF"/>
</linearGradient>
<linearGradient id="paint19_linear_2611_18264" x1="173.216" y1="64.3664" x2="195.884" y2="57.0876" gradientUnits="userSpaceOnUse">
<stop stop-color="#547FEE"/>
<stop offset="1" stop-color="#3244FF"/>
</linearGradient>
<linearGradient id="paint20_linear_2611_18264" x1="148.262" y1="41.0964" x2="139.484" y2="54.2335" gradientUnits="userSpaceOnUse">
<stop stop-color="#9D8DFF"/>
<stop offset="1" stop-color="#B095FF"/>
</linearGradient>
<linearGradient id="paint21_linear_2611_18264" x1="129.422" y1="44.5046" x2="148.087" y2="60.5692" gradientUnits="userSpaceOnUse">
<stop stop-color="#7963FE"/>
<stop offset="1" stop-color="#7432FF"/>
</linearGradient>
<linearGradient id="paint22_linear_2611_18264" x1="129.422" y1="44.5046" x2="148.087" y2="60.5692" gradientUnits="userSpaceOnUse">
<stop stop-color="#7963FE"/>
<stop offset="1" stop-color="#7432FF"/>
</linearGradient>
<linearGradient id="paint23_linear_2611_18264" x1="129.422" y1="44.5046" x2="148.087" y2="60.5692" gradientUnits="userSpaceOnUse">
<stop stop-color="#7963FE"/>
<stop offset="1" stop-color="#7432FF"/>
</linearGradient>
<linearGradient id="paint24_linear_2611_18264" x1="129.422" y1="44.5046" x2="148.087" y2="60.5692" gradientUnits="userSpaceOnUse">
<stop stop-color="#7963FE"/>
<stop offset="1" stop-color="#7432FF"/>
</linearGradient>
<linearGradient id="paint25_linear_2611_18264" x1="129.422" y1="44.5046" x2="148.087" y2="60.5692" gradientUnits="userSpaceOnUse">
<stop stop-color="#7963FE"/>
<stop offset="1" stop-color="#7432FF"/>
</linearGradient>
<linearGradient id="paint26_linear_2611_18264" x1="99.3813" y1="63.9193" x2="110.65" y2="72.7888" gradientUnits="userSpaceOnUse">
<stop stop-color="#C274FF"/>
<stop offset="1" stop-color="#E392FF"/>
</linearGradient>
<linearGradient id="paint27_linear_2611_18264" x1="100.602" y1="82.7065" x2="118.573" y2="64.7067" gradientUnits="userSpaceOnUse">
<stop stop-color="#BD54EE"/>
<stop offset="1" stop-color="#9832FF"/>
</linearGradient>
<linearGradient id="paint28_linear_2611_18264" x1="100.602" y1="82.7065" x2="118.573" y2="64.7067" gradientUnits="userSpaceOnUse">
<stop stop-color="#BD54EE"/>
<stop offset="1" stop-color="#9832FF"/>
</linearGradient>
<linearGradient id="paint29_linear_2611_18264" x1="100.602" y1="82.7065" x2="118.573" y2="64.7067" gradientUnits="userSpaceOnUse">
<stop stop-color="#BD54EE"/>
<stop offset="1" stop-color="#9832FF"/>
</linearGradient>
<linearGradient id="paint30_linear_2611_18264" x1="100.602" y1="82.7065" x2="118.573" y2="64.7067" gradientUnits="userSpaceOnUse">
<stop stop-color="#BD54EE"/>
<stop offset="1" stop-color="#9832FF"/>
</linearGradient>
<linearGradient id="paint31_linear_2611_18264" x1="100.602" y1="82.7065" x2="118.573" y2="64.7067" gradientUnits="userSpaceOnUse">
<stop stop-color="#BD54EE"/>
<stop offset="1" stop-color="#9832FF"/>
</linearGradient>
</defs>
</svg>
