<svg xmlns="http://www.w3.org/2000/svg" viewBox="0 0 24 24" fill="none" class="css-1hydu6d"><path d="M21 12.063c0 4.512-3.293 8.26-7.594 8.947V14.68h2.103l.393-2.618h-2.486v-1.7c0-.716.346-1.421 1.46-1.421h1.142V6.72s-1.037-.174-2.016-.174c-2.055 0-3.408 1.256-3.408 3.517v2H8.309v2.618h2.285v6.329A9.063 9.063 0 013 12.063C3 7.058 7.032 3 12.005 3 16.978 3 21 7.058 21 12.063z" fill="currentColor"/><path d="M21 12.063c0 4.512-3.293 8.26-7.594 8.947V14.68h2.103l.393-2.618h-2.486v-1.7c0-.716.346-1.421 1.46-1.421h1.142V6.72s-1.037-.174-2.016-.174c-2.055 0-3.408 1.256-3.408 3.517v2H8.309v2.618h2.285v6.329A9.063 9.063 0 013 12.063C3 7.058 7.032 3 12.005 3 16.978 3 21 7.058 21 12.063z" fill="currentColor"/></svg>