<svg xmlns="http://www.w3.org/2000/svg" viewBox="0 0 24 24" fill="none" class="css-1hydu6d"><path d="M13.886 15.077c-.403.403-1.267.547-1.881.547-.615 0-1.479-.144-1.882-.547a.243.243 0 00-.345 0 .243.243 0 000 .345c.643.634 1.862.682 2.227.682.365 0 1.584-.048 2.227-.691a.243.243 0 000-.346.253.253 0 00-.346.01zM10.882 12.936a.942.942 0 00-.941-.94.942.942 0 00-.941.94c0 .518.422.94.94.94.52 0 .942-.422.942-.94z" fill="currentColor"/><path d="M12.005 3a9.005 9.005 0 000 18.01 9 9 0 009.005-9.005C21 7.032 16.978 3 12.005 3zm5.222 10.205c.02.125.029.259.029.393 0 2.026-2.352 3.658-5.251 3.658-2.9 0-5.251-1.632-5.251-3.658 0-.134.01-.268.028-.393a1.303 1.303 0 01-.777-1.2 1.317 1.317 0 012.227-.95c.912-.663 2.17-1.076 3.571-1.114 0-.02.663-3.14.663-3.14 0-.057.038-.115.086-.143.048-.039.115-.048.182-.039l2.18.47a.943.943 0 01.835-.527c.518 0 .94.412.94.94s-.422.941-.94.941a.93.93 0 01-.931-.893l-1.959-.422-.595 2.813c1.382.048 2.62.47 3.514 1.113a1.31 1.31 0 012.227.941c0 .547-.327.999-.778 1.21z" fill="currentColor"/><path d="M14.069 12.005a.942.942 0 00-.94.94c0 .52.421.941.94.941.518 0 .94-.422.94-.94a.955.955 0 00-.94-.941z" fill="currentColor"/></svg>