<svg xmlns="http://www.w3.org/2000/svg" viewBox="0 0 24 24" fill="none" class="css-1hydu6d"><path d="M12 3c-4.97 0-9 4.03-9 8.99C3 16.96 7.03 21 12 21s9-4.04 9-9.01C21 7.03 16.97 3 12 3zm4.433 5.651c-.058.835-1.602 7.072-1.602 7.072s-.096.364-.432.374a.58.58 0 01-.442-.173c-.355-.297-1.16-.873-1.919-1.4-.028.028-.057.057-.096.086-.172.153-.431.374-.71.643-.105.096-.22.201-.335.316l-.01.01a2.007 2.007 0 01-.173.153c-.374.307-.412.048-.412-.086l.201-2.197v-.02l.01-.019c.01-.028.029-.038.029-.038s3.924-3.492 4.03-3.867c.009-.019-.02-.038-.068-.019-.259.086-4.778 2.946-5.277 3.262-.029.02-.115.01-.115.01l-2.197-.72s-.26-.105-.173-.345c.02-.048.048-.096.154-.163.489-.346 9-3.406 9-3.406s.24-.077.383-.03c.067.03.106.058.144.154.01.039.02.116.02.202 0 .048-.01.105-.01.201z" fill="currentColor"/></svg>