<svg xmlns="http://www.w3.org/2000/svg" viewBox="0 0 36 36" fill="none" class="css-1hydu6d"><path fill-rule="evenodd" clip-rule="evenodd" d="M18 31.5c7.456 0 13.5-6.044 13.5-13.5S25.456 4.5 18 4.5 4.5 10.544 4.5 18 10.544 31.5 18 31.5zm3.795-22.506V8.98H18.76v11.86a5.77 5.77 0 01-.168 1.46c-.99 2.183-3.83 1.847-4.52.3-.758-1.698.196-4.07 3.048-3.651V17.3c-.001 0-.002 0-.002-1.646-6.904-1.091-9.189 9.107-2.313 11.164 1.194.26 1.905.244 2.695.094 2.818-.534 4.323-3.186 4.286-5.89l.005-5.973c1.512 1.348 3.941 1.524 4.255 1.505 0-1.463 0-1.388-.001-1.31 0 .085-.001.175-.001-1.758-4.167-.247-4.248-4.218-4.249-4.493z" fill="currentColor"/></svg>